/* XPM */
static char *result[] = {
/* columns rows colors chars-per-pixel */
"32 32 180 2 ",
"   c #2B2B2B",
".  c #2E302F",
"X  c #633C03",
"o  c #6B3B04",
"O  c #673C09",
"+  c #6C3A0B",
"@  c #703C05",
"#  c #584808",
"$  c #544D11",
"%  c #6A420A",
"&  c #734207",
"*  c #73430C",
"=  c #6A4713",
"-  c #724615",
";  c #43423E",
":  c #714520",
">  c #6E5028",
",  c #72512A",
"<  c #745836",
"1  c #3A3A46",
"2  c #3F3F4B",
"3  c #403F4D",
"4  c #3F434F",
"5  c #43434E",
"6  c #4A4E4F",
"7  c #454553",
"8  c #464956",
"9  c #4A4A55",
"0  c #45465A",
"q  c #484758",
"w  c #4B4B5B",
"e  c #49525E",
"r  c #58575D",
"t  c #4C4D61",
"y  c #4E5162",
"u  c #515664",
"i  c #58596A",
"p  c #5C5D71",
"a  c #655F6D",
"s  c #626267",
"d  c #6E6760",
"f  c #756D63",
"g  c #796F63",
"h  c #7C6D68",
"j  c #777364",
"k  c #7A7265",
"l  c #7D7469",
"z  c #7E7A6C",
"x  c #82766D",
"c  c #837A6E",
"v  c #897D6E",
"b  c #887770",
"n  c #857D72",
"m  c #8A7D73",
"M  c #8E7F7A",
"N  c #907E7A",
"B  c #D99900",
"V  c #DD9E13",
"C  c #ED9600",
"Z  c #E39C00",
"A  c #EB9D00",
"S  c #F49603",
"D  c #FD9303",
"F  c #F49A01",
"G  c #FD9C05",
"H  c #FE9408",
"J  c #FD9A0B",
"K  c #DCA303",
"L  c #E6A400",
"P  c #ECA501",
"I  c #EBAA01",
"U  c #E2A50C",
"Y  c #F5A505",
"T  c #FDBE0F",
"R  c #E2A316",
"E  c #D49E38",
"W  c #D4A121",
"Q  c #DCA524",
"!  c #D9A139",
"~  c #FFBC24",
"^  c #FEBF35",
"/  c #FFCC0F",
"(  c #FEC415",
")  c #FFC915",
"_  c #FEC41D",
"`  c #F5C91B",
"'  c #FFCB1D",
"]  c #FED218",
"[  c #FFC623",
"{  c #F0C923",
"}  c #FECB23",
"|  c #FFC32B",
" . c #FECB29",
".. c #FFD223",
"X. c #FDD22A",
"o. c #FFC531",
"O. c #FBC33A",
"+. c #F2CA38",
"@. c #FFCB3C",
"#. c #FFD234",
"$. c #FFE73C",
"%. c #85816F",
"&. c #8A826F",
"*. c #858071",
"=. c #8B8374",
"-. c #868873",
";. c #8E8975",
":. c #8D8479",
">. c #8E8A79",
",. c #918576",
"<. c #928976",
"1. c #918579",
"2. c #948B7C",
"3. c #998C7D",
"4. c #99917F",
"5. c #A39577",
"6. c #A89778",
"7. c #CB9E4D",
"8. c #CD9C51",
"9. c #D29E53",
"0. c #CEA254",
"q. c #CFA35C",
"w. c #D2A25A",
"e. c #EEBE42",
"r. c #FCBF4C",
"t. c #E6BD59",
"y. c #D7B47E",
"u. c #E9BD67",
"i. c #EFCB44",
"p. c #FFC643",
"a. c #F1CB44",
"s. c #FFCA45",
"d. c #F5CE4A",
"f. c #FAC949",
"g. c #EFD343",
"h. c #EEC959",
"j. c #F9C757",
"k. c #FFE244",
"l. c #FFEC46",
"z. c #FFEC4B",
"x. c #FFF24C",
"c. c #FFED51",
"v. c #DEC671",
"b. c #E7C56B",
"n. c #F2C36B",
"m. c #F8D561",
"M. c #E8CA77",
"N. c #F8CD77",
"B. c #FFE76A",
"V. c #978C81",
"C. c #9A8E81",
"Z. c #9C9282",
"A. c #9F9886",
"S. c #A49889",
"D. c #B29E83",
"F. c #99A29F",
"G. c #A8A08D",
"H. c #9BAAAF",
"J. c #ADAFAA",
"K. c #A6B3B7",
"L. c #A5B4B9",
"P. c #AEBABE",
"I. c #B3BCBC",
"U. c #B9BFBF",
"Y. c #DBBB85",
"T. c #CDB89A",
"R. c #EFC68B",
"E. c #F7CA99",
"W. c #FFE484",
"Q. c #F9E78E",
"!. c #FFFB8B",
"~. c #FDE998",
"^. c #FFFF94",
"/. c #FFF69D",
"(. c #F7CCAC",
"). c #FDE9A0",
"_. c #FFFEA3",
"`. c #AEBAC0",
"'. c #B4BFC3",
"]. c #B5C1C4",
/* pixels */
"P.P.`.. 5 w t :.l :.*.z :.b g :.*.%.c *.n b Z.2.>.:.*.1.'.].I.P.",
"`.I.`.. 5 w i w c *.b 2.:.>.2.2.*.n ;.c c n z n 2.C.:.:.U.].`.I.",
"P.`.I.  7 q t q c c >.>.:.:.C.b C.4.n c :.1.2.l :.<.=.n I.].`.`.",
". . .   q w 7 1 w g 4.j h f z ,.l l =.j l 2.j c :.:.:.c ; . . . ",
"7 7 7 7 t y t 7 t n V.2.x v z j v k =.;.j >.g h f ;.>.*.f 6 8 7 ",
"e t w t p 9 3 9 w n C.A.l n c j >.<.:.k x =.v x *.S.V.f *.%.r 0 ",
"5 0 w w 5 q 2 w w f c =.< $ # # M.b.b.v.l c k c b b b :.S.:.s w ",
"9 5 w 3 t w 1 w i d > = ~.~.~.Q.^.!.^.!.m.h.v &.n m :.z g n -.s ",
"w 7 u 5 0 0 0 u e = W.B.O.@.O.p.O.@.o.O.^._.u.j c >.2.n k z :.:.",
"4 y 7 y 3 i 0 9 X N.g.X.L P A A Y B I U j.n./.n.=.*.:.:.m :.:.z ",
"k w 4 y t y q : ! ^ | L ) ' [  .( } ' X.V r.N./.t.:.Z.2.*.<.n f ",
":.n f z m d V.+ Q ' I ' ) ( _ L L ' ( _ [ R j.^.j.<.l v n 2.c z ",
"1.z Z.<.n Y.+ q.d.$...` / / L _ ' K ' ' }  .K p.!.n.%.j m b k *.",
"m :.;.x m Y.@ 8.a.x.X...` ] _ ' X.[ [ _ ' ( I o.^.b.<.v n n z v ",
">.:.*.*.m y.o 8.f.c.B Z Y C ~ G C [ F Y F P Z @.!.b.4.v k n n f ",
"z ,.<.1.n Y.o 9.f.k. .P F H J D G D F F F T P @.^.M.5.*.:.2.v g ",
"m N 2.=.2.Y.% 0.d.z.} _ | H D H D D F ~ ' ' A p.Q.= 5.c %.m v &.",
"V.f =.-.1.y.o 8.+.$...' A F J H H H F P ' T Y ^ Q.$ 5.v &.*.m l ",
"m f b z l Y.& 7.g.l.' I P A F S J F A I K ' A @.~.$ 5.=.*.n b m ",
",.b n n c Y.+ 0.g.$.} ( ( ) Z | ~ P ) ) ..' B O.).$ 6.C.>.b x b ",
"1.m v G.&.N (.o W [ z.#.' ' L [ [ L ' ) { z.@.B.% T.l n b c x n ",
",.,.,.2.&.v D.- E s.+.c.` ....}  .[ } ` x.+.e.W.= <.h =.*.4.N 1.",
"*.c 3.:.c x 1.R.X 7.s. .l.$.l.z.z.l.l.x.{ s.N.O 6.v m 1.*.;.=.m ",
":.*.2.3.c z &.f E.o E W a.d.i.d.a.d.g.i.Q E - 3.v c n c m 4.m f ",
"l *.C.:.x v 4.f n E.+ O q.7.8.0.0.7.9.w.O , n n ,.n n z b :.n c ",
"n <.,.3.g m n &.f v ;.=.> o * * * * @ < 3.*.*.n A.A.c n 3.*.n n ",
"M 4.,.;.j v n >.v 1.;.4.j =.,.l c *.*.v 1.n n V.2.=.g v Z.l d c ",
"l <.c =.b 2.*.,.1.<.l =.=.<.m x =.x l g z v :.2.;.v =.m ;.*.l g ",
"I.U.I.F.m V.m 2.m m c f b s :.v b *.b k 1.v ;.n =.b =.*.J.'.I.I.",
"K.L.'.6 a M :.x v m ;.m *.d n ,.m m z j 4.;.=.:.*.l m c P.P.K.K.",
"K.L.P.. w r z n =.2.=.c n n ;.<.*.v *.*.=.,.%.=.=.x *.j P.L.H.K.",
"P.P.P.. 9 w =.:.c &.=.*.n :.m ;.;.k m 2.*.=.*.=.=.b &.c I.L.K.L."
};
