/* XPM */
static char * collect_xpm[] = {
"96 128 16 1",
" 	c None",
".	c #8DE89F",
"+	c #5DD37A",
"@	c #5BC174",
"#	c #4FA364",
"$	c #C6F2CD",
"%	c #4B5A7D",
"&	c #4D5D80",
"*	c #505E82",
"=	c #485677",
"-	c #475879",
";	c #448957",
">	c #465576",
",	c #516286",
"'	c #4E6082",
")	c #345E4B",
"                                                                                                ",
"                                                                                                ",
"                                                                                                ",
"                                                                                                ",
"                                                                                                ",
"                                                                                                ",
"                                                                                                ",
"                                                                                                ",
"                                                                                                ",
"                                                                                                ",
"          .++++++++++@                                                           @              ",
"          @.++++++++@#                     $........@                          @@@@             ",
"          @@.++++++@##                     +@@@@@@@@#%                     %&@@@@@@             ",
"          @@@.++++@###*&                   +@@@@@@@@#&                     @@@@@@@@@            ",
"          @@@@.++@####%=                   +@@@@@@@@#%%                   +..+@@@@@@%           ",
"          @@@@@$.#####&&                   +@@@@@@@@#-%&                   ;#+..+@@@@           ",
"          @@@@@@######%%                   +@@@@@@@@#%%&                   ;;;;#+..+@&          ",
"          @@@@#;;;####&%                   +@@@@@@@@#>%&                    ;;;;;;#+.+&         ",
"          @@@#;;;;;###%,                   +@@@@@@@@#,%*                    ;;;;;;;;;%%         ",
"          @@#;;;;;;;##%%                   +@@@@@@+##%=&                     ;;;;;;'%&%*        ",
"          @#;;;;;;;;;#%%                   #;;;;;;;;;&%%                     ;;;;-%%%&%%        ",
"          #;;;;;;;;;;;%&                    &=%%%&%%*&%%                      ;'%%&&%%%%%       ",
"            &&%%&&%&*&%&                     %%%%%%%&%%%                                        ",
"            %&%&&%&&%%%%                     %%%%%%=&=&%                                        ",
"            &%&%%%&%%&&&                      %*%%&&&&%%                                        ",
"                                                                                                ",
"                                                                                                ",
"                                                                                                ",
"                                                                                                ",
"                                                                                                ",
"                                                                                                ",
"                                                                                                ",
"                                                                                                ",
"                                                                                                ",
"                                                                                                ",
"                                                                                                ",
"                                                                                                ",
"                                                                                                ",
"                                                                                                ",
"                                                                                                ",
"                                                                                                ",
"                                                                                                ",
"              +                                                                                 ",
"             ++++                                                                               ",
"             ++++++                                                                             ",
"            +++++++++                                                                           ",
"            +++++++.$+                                                                          ",
"           +++++.$+#;                                                                           ",
"           ++.$+#;)))=*                                                                         ",
"          +$+#;)))))&%%%                                                                        ",
"           ;))))))))%,%%%                                                                       ",
"             ))))))%%&'                                                                         ",
"             %&))))%&                                                                           ",
"             %&%>)%                                                                             ",
"                                                                                                ",
"                                                                                                ",
"                                                                                                ",
"                                                                                                ",
"                                                                                                ",
"                                                                                                ",
"                                                                                                ",
"                                                                                                ",
"                                                                                                ",
"                                                                                                ",
"                                                                                                ",
"                                                                                                ",
"                                                                                                ",
"                                                                                                ",
"                                                                                                ",
"                                                                                                ",
"                                                                                                ",
"                                                                                                ",
"                                                                                                ",
"                                                                                                ",
"                                                                                                ",
"                                                                                                ",
"                                                                                                ",
"                                                                                                ",
"                                                                                                ",
"                                                                                                ",
"                                                                                                ",
"                                                                                                ",
"                                                                                                ",
"                                                                                                ",
"                                                                                                ",
"                                                                                                ",
"                                                                                                ",
"                                                                                                ",
"                                                                                                ",
"                                                                                                ",
"                                                                                                ",
"                                                                                                ",
"                                                                                                ",
"                                                                                                ",
"                                                                                                ",
"                                                                                                ",
"                                                                                                ",
"                                                                                                ",
"                                                                                                ",
"                                                                                                ",
"                                                                                                ",
"                                                                                                ",
"                                                                                                ",
"                                                                                                ",
"                                                                                                ",
"                                                                                                ",
"                                                                                                ",
"                                                                                                ",
"                                                                                                ",
"                                                                                                ",
"                                                                                                ",
"                                                                                                ",
"                                                                                                ",
"                                                                                                ",
"                                                                                                ",
"                                                                                                ",
"                                                                                                ",
"                                                                                                ",
"                                                                                                ",
"                                                                                                ",
"                                                                                                ",
"                                                                                                ",
"                                                                                                ",
"                                                                                                ",
"                                                                                                ",
"                                                                                                ",
"                                                                                                ",
"                                                                                                "};
