/* XPM */
static char *_26973d97edb4ffecc78e9bf3f321515rAyNHuL4re6hubQV[] = {
/* columns rows colors chars-per-pixel */
"32 32 6 1 ",
"  c #FFD080",
". c #394373",
"X c #FF9500",
"o c #FFCD1E",
"O c #FFF359",
"+ c white",
/* pixels */
"                                ",
"                                ",
"                                ",
"                                ",
"                                ",
"                                ",
"            ....oooo            ",
"          ..OOOO++++oo          ",
"         .OOoooooooo++o         ",
"        .oooXXXXXXXXoo+o        ",
"       .XooXooooooooXoo+o       ",
"       .XoXooooXXooooXo+o       ",
"      .XoOooooXooXooooXo+o      ",
"      .XoOooooooooooooXo+o      ",
"      .XoOXXXXoXXoXXXXXo+o      ",
"      .XoOoXXXXXXXXXXoXo+o      ",
"      .XoOoooXXXXXXoooXoO.      ",
"      .XoOooXXXXXXXXooXoO.      ",
"      .XoOoXXXXXXXXXXoXoO.      ",
"      .XoOooooXooXooooXoO.      ",
"       .XoOoooXooXoooOoO.       ",
"       .XooOooooooooOooO.       ",
"        .XooOOOOOOOOooo.        ",
"         .XXooooooooXX.         ",
"          ..XXXXXXXX..          ",
"            ........            ",
"                                ",
"                                ",
"                                ",
"                                ",
"                                ",
"                                "
};
