/* XPM */
static char *ffdeec63202b4264eb5c94088297068fBwtM3MjvvzPYzths[] = {
/* columns rows colors chars-per-pixel */
"38 32 6 1 ",
"  c #FFD080",
". c #3D4571",
"X c #FF8C39",
"o c #FFB070",
"O c #FFD29B",
"+ c white",
/* pixels */
"                                      ",
"                                      ",
"                                      ",
"                                      ",
"                                      ",
"                                      ",
"                                      ",
"                                      ",
"                  ..                  ",
"                 .                    ",
"                 .  ..                ",
"                 . .                  ",
"                 ....                 ",
"         ...... .OOOO.                ",
"       ..OOOOOO.OooooO.               ",
"      .OO.oooo.oooooooo.              ",
"     .Ooo.oooo.o..oo..o.              ",
"     .Oooo.ooo.o+.oo+.o.              ",
"    .O.ooo.ooo.oooooooo.              ",
"    .o.Xooo.Xoo.Xooooo.               ",
"    .XX.XXXX.XXX.XXXX.                ",
"     ................                 ",
"       . . . . .                      ",
"                                      ",
"                                      ",
"                                      ",
"                                      ",
"                                      ",
"                                      ",
"                                      ",
"                                      ",
"                                      ",
};
