/* XPM */
static char *_b1f1628ebfc48dac12eaac9cb971d3d4M8gcytQEMbS0MKm[] = {
/* columns rows colors chars-per-pixel */
"38 32 5 1 ",
"  c #FFD080",
". c #3D4571",
"X c #FF8C39",
"o c #FFB070",
"O c #FFD29B",
/* pixels */
"                                      ",
"                                      ",
"                                      ",
"                                      ",
"                                      ",
"                                      ",
"                                      ",
"                                      ",
"                                      ",
"                                      ",
"                                      ",
"            ....  . . .               ",
"           .OOOO....... .             ",
"          .OooooO.OOOOO.. .           ",
"         .Oooooooo.ooo.OO..           ",
"         .o.ooo.oo.ooo.ooOO.          ",
"         .oo.o.ooo.oo.oooo.O.         ",
"         .o..o..oo.oo.oooo.o.         ",
"          .oooooo.oo.oooo.oo.         ",
"       . . .XXXX.XXX.XXXX.XX.         ",
"        .....................         "
"                                      ",
"                                      ",
"                                      ",
"                                      ",
"                                      ",
"                                      ",
"                                      ",
"                                      ",
"                                      ",
"                                      ",
"                                      ",
};
