/* XPM */
static char *result[] = {
/* columns rows colors chars-per-pixel */
"32 32 171 2 ",
"   c #030009",
".  c #0B010A",
"X  c #140D0F",
"o  c #0D0A13",
"O  c #281C1B",
"+  c #2B231B",
"@  c #191620",
"#  c gray15",
"$  c #2F2F2F",
"%  c #2E302F",
"&  c #3D373A",
"*  c #6D360D",
"=  c #6C3818",
"-  c #743C1C",
";  c #4E3D3E",
":  c #543C34",
">  c #643B24",
",  c #6D3C22",
"<  c #643C2C",
"1  c #723F24",
"2  c #73421A",
"3  c #43423E",
"4  c #4D453F",
"5  c #59423B",
"6  c #6A422C",
"7  c #64413B",
"8  c #3A3A46",
"9  c #3F3F4B",
"0  c #4B3D46",
"q  c #423F4B",
"w  c #5D3E46",
"e  c #3F434F",
"r  c #4C4444",
"t  c #42424E",
"y  c #4B434D",
"u  c #4C4B4F",
"i  c #544242",
"p  c #554A46",
"a  c #56444C",
"s  c #5A4449",
"d  c #5B4A4E",
"f  c #5E574F",
"g  c #454553",
"h  c #4B4653",
"j  c #464956",
"k  c #4A4A55",
"l  c #45465A",
"z  c #49465A",
"x  c #464958",
"c  c #4B4B5B",
"v  c #564755",
"b  c #544C5A",
"n  c #485056",
"m  c #49525E",
"M  c #575557",
"N  c #624B45",
"B  c #655E54",
"V  c #665E5A",
"C  c #676358",
"Z  c #6C655B",
"A  c #6F685E",
"S  c #726259",
"D  c #716B5F",
"F  c #4C4D61",
"G  c #4E5162",
"H  c #515664",
"J  c #56576B",
"K  c #5B5C69",
"L  c #5C5D71",
"P  c #635E68",
"I  c #626267",
"U  c #6F6860",
"Y  c #6B6568",
"T  c #706667",
"R  c #756D62",
"E  c #796F64",
"W  c #7C6D68",
"Q  c #767164",
"!  c #7A7265",
"~  c #7B7867",
"^  c #7D7469",
"/  c #7D7A6B",
"(  c #82766D",
")  c #837A6E",
"_  c #897D6E",
"`  c #887770",
"'  c #857D72",
"]  c #8A7D73",
"[  c #8E7F7A",
"{  c #907D77",
"}  c #7F816C",
"|  c #86816F",
" . c #8A826F",
".. c #858172",
"X. c #8B8374",
"o. c #868873",
"O. c #8E8975",
"+. c #8D8479",
"@. c #8E8A79",
"#. c #918576",
"$. c #918977",
"%. c #92857A",
"&. c #948B7B",
"*. c #988D7D",
"=. c #99917F",
"-. c #DA905F",
";. c #CA9B6D",
":. c #DC926B",
">. c #D29C6E",
",. c #C99D78",
"<. c #D99977",
"1. c #EB9564",
"2. c #EDAD7F",
"3. c #FFAA75",
"4. c #FAAD7D",
"5. c #F4B176",
"6. c #FAB677",
"7. c #F4B47D",
"8. c #FFB17B",
"9. c #978C81",
"0. c #9A8E81",
"q. c #9C9382",
"w. c #9F9886",
"e. c #A49889",
"r. c #BD9C89",
"t. c #99A29F",
"y. c #A8A08D",
"u. c #9BAAAF",
"i. c #ADAFAA",
"p. c #A6B2B6",
"a. c #A5B4B9",
"s. c #A8B6B9",
"d. c #AEBABE",
"f. c #B3BCBC",
"g. c #B9BFBF",
"h. c #C59686",
"j. c #DCB39A",
"k. c #E9AB85",
"l. c #F2AF84",
"z. c #EBB284",
"x. c #E7B78E",
"c. c #EBB38C",
"v. c #F3B484",
"b. c #F4B68B",
"n. c #E1AD98",
"m. c #E5B295",
"M. c #E9B696",
"N. c #E2B59C",
"B. c #E8B799",
"V. c #F2BA97",
"C. c #D4B3A4",
"Z. c #DEB3A5",
"A. c #DFBFA6",
"S. c #E6B6A0",
"D. c #EAB7A4",
"F. c #E9BDA5",
"G. c #E1B7A9",
"H. c #FFCFA6",
"J. c #FCD0AD",
"K. c #E8C7BA",
"L. c #FBD2B6",
"P. c #AEBAC0",
"I. c #B4BFC3",
"U. c #B5C1C4",
"Y. c #EFCEC7",
"T. c #EDCECB",
"R. c #EBD3C5",
"E. c #FAD5C5",
"W. c #F3D5CA",
"Q. c #E8CFD2",
"!. c #F3D8D1",
/* pixels */
"d.d.f.$ t c F X.^ +.] / +.` E +.....) X.` ` q.&.@.+.+.+.g.U.d.d.",
"P.f.P.% t F J c / X.' +.+.@.&.&.X.) X./ / X./ ' &.q.+.X.g.I.P.d.",
"d.P.d.% g x F z ) ) O.$.+.[ 0.) 0.=.' ) X.+.&.^ +.&.] ' g.U.d.P.",
"$ $ % # j c j 8 c E q.Q ^ R / #.^ ( X.Q ^ &.^ ) +.+.X.' 3 % % % ",
"g j t l F G F g c ..9.&.) _ ^ ^ ) ^ X.X.~ X.E W R X.%.o.A n j g ",
"m c c F L k q k c _ q.w.^ ' ) ! &.$.X.^ ` #._ ^ X.e.9.R ..| M j ",
"t j z c g j 9 c c T ) O.q.@.O.X.! %.~ _ ! ) ^ ) ) ` ` X.e.@.K m ",
"j g F q c c 8 c J A ' ^ ] &.( ' =.o.| ` X.( _  .' ] +./ ! ' X.I ",
"c g H t l l x H c ^ ` ' ` X.D ^ X. .` &.+.+.Q Q ) X.&.' Q ) +.X.",
"e H g G e K l j c ^ ..C ) Q X.D ) ] ^ R / / ) ( o.+.+.] X.%.+./ ",
"! c 9 G F F z q j ^ ^ Y ^ V ` 9.Z ] ' ) ^ A | *.%.] e.&.' @.' E ",
"+.' E ^ X.U &.) ^ r d d i 0 O X y   q o ^ ) ) ] X.#.^ ) ) &.) / ",
"%.^ q.&.' X.) %.& a K.J.H.L.w 0 a s 0 i t . X.( #.q._ ^ ] ` ! ..",
"X.+.X.( ] ) X.@ b T.x.7.6.2.W.w T.Y.W.!.Q.; p + C / _ _ ' X.^ ) ",
"@.@.X.' ] / f 0 K.B.z.6.5.6.z.x.= F.N.j.6 W.R.: i O X.) ^ ' ' R ",
"~ +.@.#.' ' r p F.* b.z.x.2 7.7.- m.m.M.2 N.N.E.R.i R ..X.&. .Q ",
"[ { &.X.&.$.V s N.M.1 C.5 C.v.6., Z.D.= b.2.v.c.> R.V ^ ) ] _  .",
"9.R X.o.+._ ' d Z.1 < G.7 < 2.v.1 S.n.- 4.8.v.v.= A.u ^ _ ' ] ^ ",
"` R ` / ^ ] ) ) S S.l.4.3.v.V.= 7.2.1 l.7.3.k.2 5.x.u | X.' ` ] ",
"X.] ' ' ) O.B T ` : ,.-.1.1.< r.;.>.< h.:.<.r.6 >.,.y &.O.` ( ( ",
"#._ _ y.] #.Y K Y m p 5 : s h k i 4 y c a 0 v a 7 N M ) ` ) ( ' ",
"%.#.#.&. ._ ] +...X.} Q ` ' ..+.) | ..R / ! X.X.` ( E #.X.&.[ &.",
"..) *.+.) ( #.) [ ) @.o.O.X._ ^ | X.X.' ' ..X.[ ' / ' %.X.+.] ] ",
"X.X.&.*.) ! O.D X.) X.+.&.` %.%.&.Q X.#.+./ ) _ ] / ' ) _ =...R ",
"^ ..0.#.( ) =.E ' ' ` #.$.^ ` $.X. .=.X.' ' X.' #.' ` / ] X.' ) ",
"' %.$.&.Q ] ]  .R _ O.o.Q ] &.X.X.*.&.' 9.X.' ' w.w.) _ &.X.' ' ",
"+.*.#.X.Q ) ' O.] %.X.q.^ #.] ^ ) X..._ +.' X.9.&.#.Q ) q.! R / ",
"^ $.) #.` &.X.#.#.#./ X.X.$.X.( X.^ ^ E / ) X.+.X.' X.X.@.' ^ E ",
"f.g.d.t.X.9.] &.] [ ) R ] I %.) ) X.( ^ $._ #.X.X.` ' X.i.I.f.f.",
"p.p.U.u P [ +.( _ ] X. .X.A ] #.` X.^ Q =.X.X.+.+.E X.) f.P.p.p.",
"s.s.d.% j K / ' X.&.O./ ' ' o.$.X._  . .X.#.' X.X.^ X.! d.a.u.p.",
"d.d.d.$ h c X.%.^  .X.X.' ' X.X.X.! ] &.] o...X.X.) X./ f.s.p.s."
};
