/* XPM */
static char *result[] = {
/* columns rows colors chars-per-pixel */
"32 32 175 2 ",
"   c #000004",
".  c #1C0D0B",
"X  c #1D1116",
"o  c #281816",
"O  c #292625",
"+  c #2F2F2F",
"@  c #3A2E2A",
"#  c #2E302F",
"$  c #723A1F",
"%  c #5E3A24",
"&  c #423E3D",
"*  c #573D37",
"=  c #5C3F3C",
"-  c #6D3D27",
";  c #643C2F",
":  c #743D24",
">  c #43423E",
",  c #4B443F",
"<  c #5C4234",
"1  c #5C443B",
"2  c #6B4229",
"3  c #604032",
"4  c #6B4834",
"5  c #764531",
"6  c #3A3A46",
"7  c #4C3A42",
"8  c #403F4D",
"9  c #3F434F",
"0  c #42424E",
"q  c #4C494E",
"w  c #554342",
"e  c #5A4342",
"r  c #514841",
"t  c #5B4D45",
"y  c #53454D",
"u  c #554B49",
"i  c #57524E",
"p  c #5D534C",
"a  c #454553",
"s  c #484755",
"d  c #464956",
"f  c #4A4A55",
"g  c #45465A",
"h  c #49465A",
"j  c #454958",
"k  c #4B4B5B",
"l  c #584F50",
"z  c #544758",
"x  c #49525E",
"c  c #58575D",
"v  c #634441",
"b  c #61534C",
"n  c #625553",
"m  c #655954",
"M  c #685E57",
"N  c #6B6256",
"B  c #676358",
"V  c #6F685E",
"C  c #746052",
"Z  c #72655C",
"A  c #726B5F",
"S  c #4C4D61",
"D  c #4E5162",
"F  c #515664",
"G  c #56576B",
"H  c #5B5C69",
"J  c #5C5D71",
"K  c #655F6D",
"L  c #626267",
"P  c #6F6860",
"I  c #736463",
"U  c #756D62",
"Y  c #796D64",
"T  c #7C6D68",
"R  c #767163",
"E  c #7A7265",
"W  c #7B7867",
"Q  c #7D756A",
"!  c #7E7A6B",
"~  c #7E7872",
"^  c #82766D",
"/  c #837B6E",
"(  c #897D6E",
")  c #887770",
"_  c #857D72",
"`  c #8A7D73",
"'  c #8D7F7C",
"]  c #907E7A",
"[  c #7F816C",
"{  c #85816F",
"}  c #8A826F",
"|  c #858071",
" . c #8B8374",
".. c #868873",
"X. c #8E8975",
"o. c #8D8479",
"O. c #8F8979",
"+. c #918576",
"@. c #918977",
"#. c #92857A",
"$. c #948B7B",
"%. c #988D7D",
"&. c #99917F",
"*. c #BD937B",
"=. c #CE9977",
"-. c #C8957A",
";. c #CE987E",
":. c #D79676",
">. c #D99870",
",. c #D29A7F",
"<. c #F9AB6B",
"1. c #EBAD7A",
"2. c #FBAB73",
"3. c #FBAE7B",
"4. c #E7B579",
"5. c #F6B675",
"6. c #F4B47E",
"7. c #FCB37C",
"8. c #978C81",
"9. c #9A8E81",
"0. c #979080",
"q. c #9C9382",
"w. c #9F9886",
"e. c #A49889",
"r. c #B69E9A",
"t. c #99A29F",
"y. c #A8A08D",
"u. c #9BAAAF",
"i. c #ADAFAA",
"p. c #B9A8A1",
"a. c #A6B2B6",
"s. c #A5B4B9",
"d. c #A8B6B9",
"f. c #AEBABE",
"g. c #B3BCBC",
"h. c #B9BFBF",
"j. c #C99B87",
"k. c #C2998D",
"l. c #DFB59C",
"z. c #EDAE83",
"x. c #E4A88E",
"c. c #E9AF89",
"v. c #F3AF82",
"b. c #E6B28F",
"n. c #EAB48A",
"m. c #F1B583",
"M. c #FDB786",
"N. c #F2B48A",
"B. c #E7AF98",
"V. c #EBB494",
"C. c #E7B599",
"Z. c #F5B995",
"A. c #D6B7AB",
"S. c #D3B5B3",
"D. c #D0B8B8",
"F. c #D5BBB8",
"G. c #E5B4A5",
"H. c #E8B5A0",
"J. c #F7CAAB",
"K. c #FAD6A2",
"L. c #F8D7AC",
"P. c #EDCBBD",
"I. c #F1CDB5",
"U. c #F7D4B9",
"Y. c #AEBAC0",
"T. c #B4BFC3",
"R. c #B5C1C4",
"E. c #D8C2C5",
"W. c #EEC7C0",
"Q. c #E4CDC5",
"!. c #EFD4C3",
"~. c #F8D8C3",
"^. c #F2D0CF",
"/. c #FFF4EB",
"(. c #FFF8FF",
/* pixels */
"f.f.f.+ 0 k S  .Q o.` ! o.) R o. .{ /  ._ ^ q.O.O.o. .o.T.R.f.f.",
"Y.g.Y.# 0 S G k !  ._ O.o.o.$.#. ./ ..! / _ / ` $.q.o. .h.R.Y.g.",
"f.Y.f.# a k D h / / X.O.o.o.9._ q.%._ / #.o.%.Q O.#. . .h.R.f.Y.",
"+ + # O a k a 6 k Y q.E Q I ! +.Q ^  .R Q $.R / '  . ./ > # # + ",
"a a 0 a D D S a k  .$.$./ / / Y / Q  .X.Q  .Y T U #.#. .V f d d ",
"x S k S J a 8 f k | q.w.Q _ / Y #.+.X.Q ^ +.( Q  .e.$.U | { c d ",
"0 j h k a f 8 k k I / X.q.#.X.X.W #.! / Q / E / / ) /  .y.X.H x ",
"f a S 8 k k 6 k G V _ Q  .#.^ | &...{ ) ` ^ ( } _ ` o.Q R /  .L ",
"k a F 0 g a g F k Q ) _ /  .A Q  .` { $.o.o.R R ! o.$._ Q ! o. .",
"9 D a D a G g f S Q _ B / U ` U / / W I ! ! / ^  ...o. .` #.o._ ",
"E k 0 D S x h 8 j Q ~ !  ._ ( X.E _  .( Q V { %.#.` e.$._ O.^ R ",
"o._ Y !  .A $./ Q | _ ` / $.) X._ ~ #.` / _ ^  ...+.T / / $.^ [ ",
"O.! q.#._  .^ +.Q  .+.} ` +.! E R b u u B A q.O.+.&.{ E ` ) E | ",
"` ' X.Q ` / +._ _ I p p p l I Q C I.~.!.E.t @  ./  .( ( _  ./ ^ ",
"O.o...` ` !  .I m P.L.K.K.U.W.; K.1.n.b.C.U.< o ^ U  ./ Q _ _ U ",
"W #.@.+._ _ Q ^.P.5 4.4.5.4.5 G.V.N.6.m.l.A.A.1 t ! _  .| $.{ R ",
"` ] $...O.Q U.V.C.: V.m.7.v.- S.y * m.m.7 z S.= M _ / / / ` / } ",
"8.A +...O.n J.z.c.b.$ Z.2.3.: A.(.= 6.6./.& E.e m X./ / }  .` ^ ",
") U ) ^ I Q.2 Z.M.m.: x.3.3.: A.B.N.5.<.M.V.D.y t / ! X. ./ ) ) ",
"+.` | _ Z F.= *.v.v.B.5 >.z.H.5 :.M.7.7.2.Z.* O {  .^ $.X.` Q ) ",
"#.` ( y./ r.p.< j.,.;.-.3 k.k.k.; j.-.=.=.% O  .( +.Q _ ) / ^ _ ",
"+.+.@.#.} ( i , 1 ; 5 3 w y 1 v v 7 = 4 3 . `  ./ / Y X. .$.` $.",
"..^ %.o._ ^ o.Q ^ t N e & g X 7   r i N , {  . .) / ` #. .o.o.) ",
" . .$.%./ W } I X.^ X.o.$.Y $.M 9.Q  .+. .! / ( ( ! ` / / &.| Y ",
"Q | 9.o.^ ( &.U ..` )  .@.Q ` +. .} %.X._ _  ._ #._ _ / ( X._ ^ ",
"/ #.+.$.Y ` / } I ( X. .Q  .#... .$.$. .8. ._ _ w.w./ / %. .` _ ",
"#.&.+.X.E /  .X.( #.X.&.Q  . .^ /  .| / o._ ` 8.#.X.E / 0.Q P ! ",
"Q #.! +.^ $.` +. .@.^  .` +.} ^ ` W Q Y ! / o.O.X.)  .` X._ Q Y ",
"f.h.g.t. .8.` $.` ` / U ` L +./ ( ` / Q +._ +.` X.) `  .i.T.g.g.",
"a.s.R.q K ' o.^ ( ` X.`  .P ` +.)  .Q E &. .X. . .U  .^ g.Y.s.s.",
"d.d.f.+ k c ! _  .#.../ / _ X.@. ./ {  .X.+._ .. .Q | W g.s.u.a.",
"f.f.f.+ s k ..#.Q X. ._ _  .`  .X.R  .#.) X.|  .` _  .! g.s.a.d."
};
