/* XPM */
static char * floor_xpm[] = {
"96 128 45 1",
" 	c None",
".	c #ACBBBE",
"+	c #262626",
"@	c #4D5D80",
"#	c #475877",
"$	c #8A999C",
"%	c #889699",
"&	c #849295",
"*	c #8EA0A2",
"=	c #909DA1",
"-	c #94A4A8",
";	c #909B9E",
">	c #869899",
",	c #91A1A3",
"'	c #C4D3D5",
")	c #4B5A7D",
"!	c #506085",
"~	c #8D9CA0",
"{	c #869598",
"]	c #505E83",
"^	c #485679",
"/	c #899496",
"(	c #98A7A8",
"_	c #99A9AC",
":	c #44072E",
"<	c #7F0C3A",
"[	c #475678",
"}	c #786126",
"|	c #720C4D",
"1	c #DDA430",
"2	c #D11460",
"3	c #516188",
"4	c #4E6083",
"5	c #7F8C90",
"6	c #485677",
"7	c #838E94",
"8	c #465576",
"9	c #424140",
"0	c #8C8B8A",
"a	c #999694",
"b	c #757472",
"c	c #242633",
"d	c #710815",
"e	c #AF812A",
"f	c #79898D",
"...+@@#$%&$$$*=-$$;*%$$>$*%,'......+)!);;&*%=*$$~=~%~~{$$,$='......+)@)~$$%%%$$*-,$$$$~>=$$,'...",
"...+@@!)%{$$$*%%$$$%>>~-%$$$'......+])^)/$$-$$%$$~>%~$$%-%$*'......+))))~$%%$%(%$=$$&*%=,$$$'...",
"...+)!))%%$%=$$;$$%$$~*$$=$$'......+))!!$*$$$$$$$$$$$$$$$$,='......+))#)=~$;,~$~=%$$~,,%{%$$'...",
"++++))))@$*$$$$$-%/$$>$$=$=-++++++++)))))$-$$_%$=$*%$%$-$*$$+++..+++)))))-,$$$~~%/=$$$~={%=$++++",
")))):::::<<<<<<<<<<<<<<<<<<<<::::::::::::<<<<<<<<<<<<<<<<<<<$@'..+)@:::::<<<<<<<<<<<<<<<<<<<{)@)",
"[))!:}|}}121112111211121112111|}}}|}}}|}}121112111211211121<)$'..+@@:}|}}121112111211211121<]-))",
")@)):|}||212221222122212221222}|||}|||}||212221222122122212<@$'..+3@:|}||212221222122122212<)%))",
")))):}|}}1211121112111211121112}}}|}}}|}}121112111211211121<),'..+)):}|}}121112111211211121<@$~)",
")))):}|}:<<<<<<<<<<<<<<<<<<<<<<<:::::::::<<<<<<<<<<<<<<<121<]='..+)):}|}:<<<<<<<<<<<<<<<121<)$--",
")44):}|}:22222222222222222222222|||||||||22222222222222<121<@~'..+@@:}|}:22222222222222<121<)%%~",
"$4)):|}|:211222222222222222<<<222||||||||22222222222112<212<)$'..+@):|}|:21122222222112<212<]$~-",
"=;%$<121<21122222222222222<<2<<22222<<<222<<22222222112<121<)-'..+@]:}|1<21122222222112<121<)-$~",
"%$%$<121<22<<222222222222<<222<<2211<22<2<<<2222222<<22<121<)$'..+)@:}|1<22<<222222<<22<121<){~$",
"$$$$<121<222<<2222222222<<22222<<2112222<<22<<22222<222<121<@$'..+)@:}|1<222<<22222<222<121<)~~~",
"$$$$<212<2222<<<22222222<22222<<<2222222<<222<<2<<<2222<212<)&'..+@@:|}2<2222<<<<<<2222<212<)$%*",
"$$$%<121<22222<<22222222<222222<<222222<<22222<2<<22222<121<)&'..+@@:}|1<22222<<<<22222<121<@$$$",
"%,$;<121<2222<<<<22222<<222222<<<222222<<22222<<<<22222<121<#$'..+)]:}|1<2222<<<<<22222<121<^%~$",
"$$==<121<2222<22<22222<2222222<2<<22222<22222<<22222222<121<4*'..+)@:}|1<2222<222222222<121<)~$$",
"$-%*<221<222<222<<<222<2222222<2<<<2222<2222<<222222112<212<4*'..+)^:|}2<222<2222222112<212<),%,",
"$$$$=<12<22<<222<<<<<<<22222<<2222<<<<<22222<2222222112<121<)$'..+3@:}|1<22<<2222222112<121<@$$$",
"%~~*$<121<2<222222<<<222211<<222222<<<<<<<22<<222222<<2<121<)$'..+@):}|1<22<22222222<<2<121<@=5~",
"~-*$*<121<2<<<222222222221122222222<<2222<222<<<222<222<121<),'..+@@:}|1<22<<<22222<222<121<@*~$",
"$*$%$<212<222<<<<2222222222222222222222222<22<<<<2<<222<212<)$'..+)@:|}2<2222<<<<2<<222<212<)$$$",
"=$~$$<121<22222<<<<2222<<<<<<<<<<<<<<<<<<21122<<<<<2222<121<)%'..+^^:}|1<222222<<<<2222<121<)$$~",
",-$$$<121<222222<<<<222<1211112111211121<21122222<<<222<121<6$'..+)):}|1<22222222<<<222<121<)~*%",
"$$-$~<121<22222222<<<22<2122221222122212<2222222222<222<121<!%'..+)@:}|1<2222222222<222<121<@~$%",
"*$$$%<212<211222222<<22<1211112111211121<22211222222<22<212<)7'..+)@:|}2<21122222222<22<212<@*~$",
"*$;$$<121<211222222<<22<121<<<<<<<<<<121<22211222222<22<121<6%'..+)@:}|1<211<2222222<22<121<)-~&",
"'''_%<12<2222<22222<<22<121<'''''''_<121<2222<22222<<22<121<'''..+__:}|1<2222<22222<<22<121<''''",
"__.+:121<22222<22<<<222<121<'_____.+:121<2222<<222<<<22<121<'_____.+:}|1<22222<222<<<22<121<'___",
"...+:|12<22222<2<<<2222<212<'__....+:|12<22222<22<<<222<212<'__....+:|}2<22222<22<<<222<212<'__.",
"...+:}21<222222<<222222<121<'_.....+:}21<222222<<<<2222<121<'_.....+:}|1<222222<<<<2222<121<'_..",
"...+:}|1<2222<<<2222222<121<'......+:}|1<22222<<<<<2222<121<'......+:}|1<2222<<<<<<2222<121<'...",
"...+:}|}<222<<<22222222<121<'......+:}|}<2222<<<2222222<121<'......+:}|}<222<<<22222222<121<'...",
"...+:|}|<22<<2222222112<212<'......+:|}|<2222<<22222112<212<'......+:|}|<22<<2222222112<212<'...",
"++++:}|}:2<<2222222<112<121<++++++++:}|}:222<<222222112<121<+++..+++:}|}:2<<22222222112<121<++++",
"@@3]:}|}:2<2222222<2222<121<<::::::::}|}:22<<<2222<<222<121<))'..+^):}|}:2<2222222<<222<121<))6@",
"))4):}|}:22<<<2222<2222<121112}}}}|}}}|}:2222<<222<2222<121<!$'..+@):}|}:22<<<2222<2222<121<)$))",
"@])):|}|:2222<<<<<<2222<212221||||}|||}|:22222<<<2<2222<212<)*'..+@^:|}|:2222<<<<2<2222<212<)%)@",
"])@):}|}:2222<22<<<2222<1211121}}}|}}}|}:22222<<<<<2222<121<!{'..+)@:}|}:2222<22<<<2222<121<)$*^",
")8!4:}|}:2222<2222<<<22<<<<<<<<<:::::::::2222222222<<22<121<)$'..+)):}|}:2222<22222<<22<121<)%$$",
")))@:}|}:2222<222222<<2222222222|||||||||22222222222<<2<121<]%'..+)@:}|}:2222<222222<<2<121<@$/$",
"$))@:|}|:22<<2222222<<222222<2222||||||||22222222222<<2<212<);'..+6):|}|:22<<2222222<<2<212<@,$$",
";$;$<121<222<2222222<<22222<<<222222222<2<<<2222222<<<2<121<)$'..+)#:}|1<222<222222<<<2<121<)%&=",
"~*$$<121<2211222222<<222222<<<<22222222<<<2<<2222<<<<22<121<4*'..+)):}|1<22112222<<<<22<121<)$~%",
"$%*$<121<22112222<<<222222<<22<<2222222<<<22<<222<<2222<121<4$'..+@@:}|1<22112222<<2222<121<)%%$",
"$$$*<212<2222222<<2222222<<222<<<22222<<<222<<<<<<22222<212<)*'..+)]:|}2<2222222<<22222<212<@$~%",
"*$$$<121<2222222<22222222<222222<22222<2222222<<<222222<121<4$'..+)^:}|1<2222222<222222<121<]$~%",
"$$$$<1|1<222<<<<<<<22222<<222222<<2222<22222222<<<22222<121<@%'..+]@:}|1<222<<<<<<22222<121<)%%,",
"%$~$<12}<222<<2222<2222<<<2222222<222<<222222222<<22222<121<)$'..+@@:}|1<222<<22<<22222<121<)~~$",
"%$~$<212:22<<222222<<<<<2<22222222<2<<2<222222222<<2222<212<4/'..+]):|}2<22<<2222<<2222<212<)$$$",
"$$%$$<22<|2<22222222<<<222<2222222<<<<22<<<<1122222<222<121<)%'..+@@:}|1<22<2222222<222<121<)$>>",
"$,$$~<12<2}122222222<2<222<<11222<<<<22222221122222<112<121<)$'..+)):}|1<2112222222<112<12<<@,~~",
"$$$-%<212<2}22222222<<222222112222222222222222222222112<212<!$'..+@):|}2<21122222222112<21<9)%~~",
"~$$$%<121<2<:222222222222222222222222222222222222222222<121<)%'..+)):}|1<22222222222222<1<098%-$",
">~~$$<121<<11|<<<<<<<<<<<<<<<<<<<<<<<<<<<<<<<<<<<<<<<<<<121<4$'..+)@:}|1<<<<<<<<<<<<<<<<<ab9)%,$",
"$~>--$<1212221}11121112111211121112111211121112111211211121<)*'..+)):}|11121112111211211<09^@~~=",
"~$~~$*<212111<<<2212221222122212221222122212221222122122212<)%'..+@@:|}2221222122212212<ab9)===%",
"~$$$%$<121<<<c9d1121112111211121112111211121112111211211121<)*'..+@):}|1112111211121121e<9@$==~-",
"~$,>$$<<<<)))9c9<<<<<<<<<<<<<<<<<<<<<<<<<<<<<<<<<<<<<<<<<<<<)$'..+)):::<<<<<<<<<<<<<<<<<<9^%{7~~",
"'''_~$@@))@$$=$@))))@)]@)@@)'''''''_)@)@]@!6@))#)))!)))!))))'''..+__@@)^))))@))@)@)@@@)@)@$$''''",
"__.+@>$~$$$$=$%(*$$~=$$%$&$&'_____.+@*;*$,$$%-$**;$$$;,*%%{$'_____.+@@){$%*,*~%%$%,%%&$$~$=-'___",
"...+_''''''''''''''''''''''''__....+_''''''''''''''''''''''''__....+_''''''''''''''''''''''''__.",
"............................._..............................._..............................._..",
"................................................................................................",
"...+++++++++++++++++++++++++'......+++++++++++++++++++++++++'......+++++++++++++++++++++++++'...",
"...+@63)@)^)))))@3@@^))^4@)@'......+)))))@#)@)6)4)@))@))))))'......+)))))4@))@@))^)))))[)@@4'...",
"++++)^]]^))])^)@)]))@@^))@^)++++++++)))))@)))))]@)43)))@@4@)+++..+++)#4)4@))@^)@@@))^@@^@))4++++",
")))@::::::::::::::::::::::::::::::::::::::::::::::::::::::::))'..+)@::::::::::::::::::::::::[)@)",
"@)@@:}|}}}|}}}|}}}|}}}|}}}|}}}|}}}|}}}|}}}|}}}|}}}|}}|}}}|}:]#'..+)):}|}}}|}}}|}}}|}}|}}}|}:@@4)",
")))^:|}|||}|||}|||}|||}|||}|||}|||}|||}|||}|||}|||}||}|||}|:)@'..+@@:|}|||}|||}|||}||}|||}|:@)))",
")))):}|}}}|}}}|}}}|}}}|}}}|}}}|}}}|}}}|}}}|}}}|}}}|}}|}}}|}:@)'..+)@:}|}}}|}}}|}}}|}}|}}}|}:@)4@",
")3)@:}|}::::::::::::::::::::::::::::::::::::::::::::::::}|}:))'..+@@:}|}::::::::::::::::}|}:@)4)",
"@4)):}|}:22222222222222222222222|||||||||22222222222222<121<@$'..+)4:}|}:22222222222222<121<)$$$",
"$4)^:|}|:211222222222222222<<<222||||||||22222222222112<212<@%'..+)):|}|:21122222222112<212<@$~$",
"~$=-<121<21122222222222222<<2<<22222<<<222<<22222222112<121<@$'..+@):}|1<21122222222112<121<4$$$",
"&$$$<121<22<<222222222222<<222<<2211<22<2<<<2222222<<22<121<)*'..+@):}|1<22<<222222<<22<121<8~%%",
"--%*<121<222<<2222222222<<22222<<2112222<<22<<22222<222<121<@;'..+@4:}|1<222<<22222<222<121<@$~$",
"*$$$<212<2222<<<22222222<22222<<<2222222<<222<<2<<<2222<212<)$'..+4):|}2<2222<<<<<<2222<212<)%~=",
"$$>$<121<22222<<22222222<222222<<222222<<22222<2<<22222<121<@='..+@):}|1<22222<<<<22222<121<)%~$",
"$*$,<121<222<<<<<<<22222<<222222<<2222<22222222<<<22222<121<)-'..+4@:}|1<222<<<<<<22222<121<@%=$",
"$${$<121<222<<2222<2222<<<2222222<222<<222222222<<22222<121<)-'..+@):}|1<222<<22<<22222<121<)~=%",
"=$$$<212<22<<222222<<<<<2<22222222<2<<2<222222222<<2222<212<)$'..+@@:|}2<22<<2222<<2222<212<),~%",
"&,=$<121<22<22222222<<<222<2222222<<<<22<<<<1122222<222<121<@$'..+)@:}|1<22<2222222<222<121<)~$%",
"%-$$<121<21122222222<2<222<<11222<<<<22222221122222<112<121<){'..+@):}|1<2112222222<112<121<)~~,",
"=$;$<212<21122222222<<222222112222222222222222222222112<212<)~'..+)):|}2<21122222222112<212<3,~,",
"*=%{<121<2222222222222222222222222222222222222222222222<121<)$'..+)@:}|1<22222222222222<121<]~~%",
"$$=$<121<<<<<<<<<<<<<<<<<<<<<<<<<<<<<<<<<<<<<<<<<<<<<<<<121<)='..+)):}|1<<<<<<<<<<<<<<<<121<)$~~",
"$$=$<121112111211121112111211121112111211121112111211211121<)$'..+)@:}|11121112111211211121<@$$~",
"=$$$<212221222122212221222122212221222122212221222122122212<@='..+)^:|}22212221222122122212<@${$",
"-$%=<121112111211121112111211121112111211121112111211211121<@*'..+)):}|11121112111211211121<@$$$",
"$$$*<<<<<<<<<<<<<<<<<<<<<<<<<<<<<<<<<<<<<<<<<<<<<<<<<<<<<<<<)$'..+@):::<<<<<<<<<<<<<<<<<<<<<3~~%",
"'''_@4))@)))!)!))3@@@@))])))'''''''_@^))))4@^^)))@)))^)^4)))'''..+__@^@@))4@)@)@)@@))@))@)))''''",
"__.+)$%*$%%$$/*$~$${$~~%$$=$'_____.+)${$$&$%$$~~$$%=~%~=$*,$'_____.+)@@$%$$-$%>$~$$$$$$$>-*~'___",
"...+))-ff$=$$-%%%,~~~$~>%~~$'__....+)@%{$$*~,$~$%=%=$=$=*$$$'__....+)))$$%$$$$==$,-%-${~{~%~'__.",
"...+4);;%*$$$$$%~,~$$$~5~$%~'_.....+)@$~~$~-$,~%%%%/&-$$**$$'_.....+))@{$$$$,$$**$%*$$$&%~$%'_..",
"                                <22222<<222222<<<222222<<22222<<                                ",
"                                <22222<2222222<2<<22222<22222<<2                                ",
"                                <<<222<2222222<2<<<2222<2222<<22                                ",
"                                <<<<<<<22222<<2222<<<<<22222<222                                ",
"    <<<<<<<<<<<<<<<<<<<<<<<<    22<<<222211<<222222<<<<<<<22<<22                                ",
"    <1211121112111211211121<    2222222221122222222<<2222<222<<<                                ",
"    <2122212221222122122212<    <2222222222222222222222222<22<<<                                ",
"    <1211121112111211211121<    <<<2222<<<<<<<<<<<<<<<<<<21122<<                                ",
"    <121<<<<<<<<<<<<<<<<121<    <<<<222<1111111111111111<2112222                                ",
"    <121<22222222222222<121<    22<<<22<12211111<<111221<2222222                                ",
"    <212<21122222222112<212<    222<<22<12111<<<2<111121<2221122                                ",
"    <121<21122222222112<121<    222<<22<1111<1<<<<111111<2221122                                ",
"    <121<22<<222222<<22<121<    222<<22<11111111<1111111<2222<22                                ",
"    <121<222<<22222<222<121<    2<<<222<11<<<<<1<<<<<<11<2222<<2                                ",
"    <212<2222<<22<<2222<212<    <<<2222<1<12222<<<2221<1<22222<2                                ",
"    <121<22222<<<<22222<121<    <222222<11<<<<<2<2<<<<11<222222<                                ",
"    <121<222<<<<<222222<121<    2222222<1<12222<<<221<<1<22222<<                                ",
"    <121<222<<22<<22222<121<    2222222<112<<<<<<<<<<<<1<2222<<<                                ",
"    <212<22<<2222<<2222<212<    2222112<11<<1111<<1111<1<2222<<2                                ",
"    <121<22<2222222<222<121<    222<112<1111111<<<<11111<222<<22                                ",
"    <121<2112222222<112<121<    22<2222<111111<<11<11111<22<<<22                                ",
"    <212<21122222222112<212<    22<2222<12111<<111<11121<2222<<2                                ",
"    <121<22222222222222<121<    <<<2222<1221<<1111<<1221<22222<<                                ",
"    <121<<<<<<<<<<<<<<<<121<    <<<2222<1111111111111111<22222<<                                ",
"    <1211121112111211211121<    22<<<22<<<<<<<<<<<<<<<<<<2222222                                ",
"    <2122212221222122122212<    2222<<22222222222222222222222222                                ",
"    <1211121112111211211121<    2222<<222222<2222222222222222222                                ",
"    <<<<<<<<<<<<<<<<<<<<<<<<    2222<<22222<<<222222222<2<<<2222                                ",
"                                222<<222222<<<<22222222<<<2<<222                                ",
"                                2<<<222222<<22<<2222222<<<22<<22                                ",
"                                <<2222222<<222<<<22222<<<222<<<<                                ",
"                                <22222222<222222<22222<2222222<<                                "};
