/* XPM */
static char * player_xpm[] = {
"96 128 31 1",
" 	c None",
".	c #ACBBBE",
"+	c #262626",
"@	c #4D5D80",
"#	c #455475",
"$	c #8D9CA0",
"%	c #8A999C",
"&	c #849295",
"*	c #91A1A3",
"=	c #909EA1",
"-	c #889699",
";	c #869899",
">	c #C4D3D5",
",	c #4A5A7D",
"'	c #869598",
")	c #95A5A8",
"!	c #4E6083",
"~	c #889496",
"{	c #485779",
"]	c #82794B",
"^	c #3B3823",
"/	c #D3B67A",
"(	c #877447",
"_	c #71663F",
":	c #C1A666",
"<	c #475879",
"[	c #516288",
"}	c #9AAAAD",
"|	c #506186",
"1	c #8EA0A1",
"2	c #505E82",
"...+@@#$%&%%%$$*=%==-%%%%*;*>......+,@,%=&=%==%$$$%-=%'%$$%$>......+@@,%$%-'%$%$)*%%%%%%$$%*>...",
"...+@@!,-&%%%=%'%%%~'%%*-%%=>......+,,,,~%$)%%-%%%%-=%$-)'$=>......+{@,,$%'--%)'%=%$&='$*%%%>...",
"...+]^]]/////////////(///(/(>......+]^]]/////////////(///(/(>......+]^]]/////////////(///(/(>...",
"++++]^]__::::::::::::(/::(/(++++++++]^]__::::::::::::(/::(/(+++..+++]^]__::::::::::::(/::(/(++++",
",<]]]^]__::::::::::::(/::(///^]]]^]]]^]__::::::::::::(/::(///^>..+]]]^]__::::::::::::(/::(///^@,",
"<,]__^^^^(((((((((((((((((/::(]__^]__^^^^(((((((((((((((((/::(>..+]__^^^^(((((((((((((((((/::(,,",
",@]__^]]](///////////////(/::(]__^]__^]]](///////////////(/::(>..+]__^]]](///////////////(/::(,,",
",,]__^]__(/::::::::::::::(/::(/__^]__^]__(/::::::::::::::(/::(>..+]__^]__(/::::::::::::::(/::(,,",
",,]__^]__(/::::::::::::::(/::(/:_^]__^]__(/::::::::::::::(/::(>..+]__^]__(/::::::::::::::(/::([)",
",!]__^]__(((((((((((((((((((((/:_^]__^]__(((((((((((((((((((((>..+]__^]__(((((((((((((((((((((,=",
"%!]__^]__(///(///////////////(/::^]__^]__(///(///////////////(>..+]__^]__(///(///////////////(,)",
"==/::(/::(/::(/::::::::::::::(/::(/::(/::(/::(/::::::::::::::(>..+]__^]::(/::(/::::::::::::::(,$",
"-$/::(/::(/::(/::::::::::::::(/::(/::(/::(/::(/::::::::::::::(>..+]__^]::(/::(/::::::::::::::(@%",
"%%/::(/::(/::(((((((((((((((((((((/::(/::(/::(((((((((((((((((>..+]__^]::(/::(((((((((((((((((@%",
"%%/::(/::(/::(///(///////////////(/::(/::(/::(///(///////////(>..+]__^]::(/::(///(///////////(,$",
"%%/::(/::(/::(/::(/::::::::::::::(/::(/::(/::(/::(/::::::::::(>..+]__^]::(/::(/::(/::::::::::(@%",
"'*/::(/::(/::(/::(/::::::::::::::(/::(/::(/::(/::(/::::::::::(>..+]__^]::(/::(/::(/::::::::::(,%",
"%%((((/::(/::(/::(((((((((((((((((((((/::(/::(/::(((((((((((((>..+^^^^]::(/::(/::(((((((((((((,%",
"%)///(/::(/::(/::(///(///////////////(/::(/::(/::(///(///////(>..+]]]^]::(/::(/::(///(///////(<*",
"%%/::(/::(/::(/::(/::(/::::::::::::::(/::(/::(/::(/::(/::::::(>..+]__^]::(/::(/::(/::(/::::::(@;",
"%$/::(/::(/::(/::(/::(/::::::::::::::(/::(/::(/::(/::(/::::::(>..+]__^]::(/::(/::(/::(/::::::(#$",
"$)((((((((/::(/::(/::(((((((((((((((((((((/::(/::(/::(((((((((>..+^^^^^(((/::(/::(/::(((((((((@%",
"%$///////(/::(/::(/::(///(///////////////(/::(/::(/::(///(///(>..+]]]]]//(/::(/::(/::(///(///(,%",
"=$/::::::(/::(/::(/::(/::(/::::::::::::::(/::(/::(/::(/::(/::(>..+]____::(/::(/::(/::(/::(/::(@$",
"**/::::::(/::(/::(/::(/::(/::::::::::::::(/::(/::(/::(/::(/::(>..+]____::(/::(/::(/::(/::(/::(!-",
"%%((((((((((((/::(/::(/::(((((((((((((((((((((/::(/::(/::(((((>..+^^^^^(((((((/::(/::(/::(((((,'",
"*%///////////(/::(/::(/::(///(///////////////(/::(/::(/::(///(>..+]]]]]//////(/::(/::(/::(///(,%",
"*%((/::::::::(/::(/::(/::(/(((((((((/::::::::(/::(/::(/::(/(((>..+^^]__::::::(/::(/::(/::(/(((,'",
">>>}/::::::::(/::(/::(/::(/(>>>>>>>}/::::::::(/::(/::(/::(/(>>>..+}}]__::::::(/::(/::(/::(/(>>>>",
"}}.+^(((((((((((((/::(/::(/(>}}}}}.+^(((((((((((((/::(/::(/(>}}}}}.+^^^(((((((((((/::(/::(/(>}}}",
"...+]]///////////(/::(/::(/(>}}....+]]///////////(/::(/::(/(>}}....+]]]//////////(/::(/::(/(>}}.",
"...+]_:::::::::::(/::(/::(/(>}.....+]_:::::::::::(/::(/::(/(>}.....+]__::::::::::(/::(/::(/(>}..",
"...+]__::::::::::(/::(/::(/(>......+]__::::::::::(/::(/::(/(>......+]__::::::::::(/::(/::(/(>...",
"...+^^^^((((((((((((((/::(/(>......+^^^^((((((((((((((/::(/(>......+^^^^((((((((((((((/::(/(>...",
"...+]^]]/////////////(/::(/(>......+]^]]/////////////(/::(/(>......+]^]]/////////////(/::(/(>...",
"++++]^]__::::::::::::(/::(/(++++++++]^]__::::::::::::(/::(/(+++..+++]^]__::::::::::::(/::(/(++++",
"@@]]]^]__::::::::::::(/::(///^]]]^]]]^]__::::::::::::(/::(///^>..+]]]^]__::::::::::::(/::(///^#@",
",,]__^^^^(((((((((((((((((/::(]__^]__^^^^(((((((((((((((((/::(>..+]__^^^^(((((((((((((((((/::(,,",
"!|]__^]]](///////////////(/::(]__^]__^]]](///////////////(/::(>..+]__^]]](///////////////(/::(@,",
",,]__^]__(/::::::::::::::(/::(/__^]__^]__(/::::::::::::::(/::(>..+]__^]__(/::::::::::::::(/::(@{",
",#]__^]__(/::::::::::::::(/::(/:_^]__^]__(/::::::::::::::(/::(>..+]__^]__(/::::::::::::::(/::(,$",
",,]__^]__(((((((((((((((((((((/:_^]__^]__(((((((((((((((((((((>..+]__^]__((((((((((((((((((((({%",
"%,]__^]__(///(///////////////(/::^]__^]__(///(///////////////(>..+]__^]__(///(///////////////(,%",
"=%/::(/::(/::(/::::::::::::::(/::(/::(/::(/::(/::::::::::::::(>..+]__^]::(/::(/::::::::::::::(#$",
"$*/::(/::(/::(/::::::::::::::(/::(/::(/::(/::(/::::::::::::::(>..+]__^]::(/::(/::::::::::::::(@%",
"%%/::(/::(/::(((((((((((((((((((((/::(/::(/::(((((((((((((((((>..+]__^]::(/::((((((((((((((((({%",
"%%/::(/::(/::(///(///////////////(/::(/::(/::(///(///////////(>..+]__^]::(/::(///(///////////(@'",
"$%/::(/::(/::(/::(/::::::::::::::(/::(/::(/::(/::(/::::::::::(>..+]__^]::(/::(/::(/::::::::::(,%",
"%%/::(/::(/::(/::(/::::::::::::::(/::(/::(/::(/::(/::::::::::(>..+]__^]::(/::(/::(/::::::::::(,=",
"'%((((/::(/::(/::(((((((((((((((((((((/::(/::(/::(((((((((((((>..+^^^^]::(/::(/::(((((((((((((@%",
"'$///(/::(/::(/::(///(///////////////(/::(/::(/::(///(///////(>..+]]]^]::(/::(/::(///(///////(,$",
"%%/::(/::(/::(/::(/::(/::::::::::::::(/::(/::(/::(/::(/::::::(>..+]__^]::(/::(/::(/::(/::::::(<%",
"%1/::(/::(/::(/::(/::(/::::::::::::::(/::(/::(/::(/::(/::::::(>..+]__^]::(/::(/::(/::(/::::::(@%",
"$%((((((((/::(/::(/::(((((((((((((((((((((/::(/::(/::(((((((((>..+^^^^^(((/::(/::(/::(((((((((,$",
"%%///////(/::(/::(/::(///(///////////////(/::(/::(/::(///(///(>..+]]]]]//(/::(/::(/::(///(///([%",
"%%/::::::(/::(/::(/::(/::(/::::::::::::::(/::(/::(/::(/::(/::(>..+]____::(/::(/::(/::(/::(/::([%",
"%%/::::::(/::(/::(/::(/::(/::::::::::::::(/::(/::(/::(/::(/::(>..+]____::(/::(/::(/::(/::(/::(@$",
"%%((((((((((((/::(/::(/::(((((((((((((((((((((/::(/::(/::(((((>..+^^^^^(((((((/::(/::(/::(((((2-",
"%%///////////(/::(/::(/::(///(///////////////(/::(/::(/::(///(>..+]]]]]//////(/::(/::(/::(///(@)",
"%$((/::::::::(/::(/::(/::(/(((((((((/::::::::(/::(/::(/::(/(((>..+^^]__::::::(/::(/::(/::(/(((,=",
">>>}/::::::::(/::(/::(/::(/(>>>>>>>}/::::::::(/::(/::(/::(/(>>>..+}}]__::::::(/::(/::(/::(/(>>>>",
"}}.+^]((((((((((((((((((((((>}}}}}.+^(((((((((((((((((((((((>}}}}}.+^^^(((((((((((((((((((((>}}}",
"...+}>>>>>>>>>>>>>>>>>>>>>>>>}}....+}>>>>>>>>>>>>>>>>>>>>>>>>}}....+}>>>>>>>>>>>>>>>>>>>>>>>>}}.",
".............................}...............................}...............................}..",
"................................................................................................",
"...+++++++++++++++++++++++++>......+++++++++++++++++++++++++>......+++++++++++++++++++++++++>...",
"...+]^]]]]]]]]]]]]]]]^]]]^]^>......+]^]]]]]]]]]]]]]]]^]]]^]^>......+]^]]]]]]]]]]]]]]]^]]]^]^>...",
"++++]^]______________^]__^]^++++++++]^]______________^]__^]^+++..+++]^]______________^]__^]^++++",
",@]]]^]______________^]__^]]]^]]]^]]]^]______________^]__^]]]^>..+]]]^]______________^]__^]]]^@,",
",@]__^^^^^^^^^^^^^^^^^^^^^]__^]__^]__^^^^^^^^^^^^^^^^^^^^^]__^>..+]__^^^^^^^^^^^^^^^^^^^^^]__^@@",
"{,]__^]]]^]]]]]]]]]]]]]]]^]__^]__^]__^]]]^]]]]]]]]]]]]]]]^]__^>..+]__^]]]^]]]]]]]]]]]]]]]^]__^@,",
"@@]__^]__^]______________^]__^]__^]__^]__^]______________^]__^>..+]__^]__^]______________^]__^@,",
"@2]__^]__^]______________^]__^]__^]__^]__^]______________^]__^>..+]__^]__^]______________^]__^@@",
"@@]__^]__(((((((((((((((((((((/:_^]__^]__(((((((((((((((((((((>..+]__^]__(((((((((((((((((((((,%",
"$@]__^]__(///(///////////////(/::^]__^]__(///(///////////////(>..+]__^]__(///(///////////////({$",
"$%/::(/::(/::(/::::::::::::::(/::(/::(/::(/::(/::::::::::::::(>..+]__^]::(/::(/::::::::::::::(@%",
"&%/::(/::(/::(/::::::::::::::(/::(/::(/::(/::(/::::::::::::::(>..+]__^]::(/::(/::::::::::::::(,%",
")}/::(/::(/::(((((((((((((((((((((/::(/::(/::(((((((((((((((((>..+]__^]::(/::(((((((((((((((((,$",
"$%/::(/::(/::(///(///////////////(/::(/::(/::(///(///////////(>..+]__^]::(/::(///(///////////(,%",
"%%/::(/::(/::(/::(/::::::::::::::(/::(/::(/::(/::(/::::::::::(>..+]__^]::(/::(/::(/::::::::::(,$",
"$1/::(/::(/::(/::(/::::::::::::::(/::(/::(/::(/::(/::::::::::(>..+]__^]::(/::(/::(/::::::::::(,$",
"%-((((/::(/::(/::(((((((((((((((((((((/::(/::(/::(((((((((((((>..+^^^^]::(/::(/::(((((((((((((,%",
"%$///(/::(/::(/::(///(///////////////(/::(/::(/::(///(///////(>..+]]]^]::(/::(/::(///(///////(@'",
"'*/::(/::(/::(/::(/::(/::::::::::::::(/::(/::(/::(/::(/::::::(>..+]__^]::(/::(/::(/::(/::::::(@'",
"-*/::(/::(/::(/::(/::(/::::::::::::::(/::(/::(/::(/::(/::::::(>..+]__^]::(/::(/::(/::(/::::::(@*",
"$$((((((((/::(/::(/::(((((((((((((((((((((/::(/::(/::(((((((((>..+^^^^^(((/::(/::(/::(((((((((@1",
"*$///////(/::(/::(/::(///(///////////////(/::(/::(/::(///(///(>..+]]]]]//(/::(/::(/::(///(///(@-",
"%%/::::::(/::(/::(/::(/::(/::::::::::::::(/::(/::(/::(/::(/::(>..+]____::(/::(/::(/::(/::(/::(@$",
"$%/::::::(/::(/::(/::(/::(/::::::::::::::(/::(/::(/::(/::(/::(>..+]____::(/::(/::(/::(/::(/::(,%",
"$%((((((((((((/::(/::(/::(((((((((((((((((((((/::(/::(/::(((((>..+^^^^^(((((((/::(/::(/::((((({%",
"*%///////////(/::(/::(/::(///(///////////////(/::(/::(/::(///(>..+]]]]]//////(/::(/::(/::(///(@%",
"$%((/::::::::(/::(/::(/::(/(((((((((/::::::::(/::(/::(/::(/(((>..+^^]__::::::(/::(/::(/::(/(((@-",
">>>}/::::::::(/::(/::(/::(/(>>>>>>>}/::::::::(/::(/::(/::(/(>>>..+}}]__::::::(/::(/::(/::(/(>>>>",
"}}.+^(((((((((((((((((((((((>}}}}}.+^(((((((((((((((((((((((>}}}}}.+^^^(((((((((((((((((((((>}}}",
"...+@,,##,,,,!,,{2,,,,,,<@@,>}}....+@,,<,,@@@,@,{@,@,!,@@,@,>}}....+,,,,,{,@,,,@,@[<!,<@#@{@>}}.",
"...+@,=%%$%$%-%%$)$%$$%&%%;=>}.....+@,%=%%%)%)%%%~--'*%%1$-$>}.....+,,@'%=$~*$$$*$'*$-%&%$$'>}..",
"                                :(/::::::::::::::(/::(/::(/::(/:                                ",
"                                :(((((((((((((((((((((/::(/::(/:                                ",
"  ///(///////////////(///(///(  :(///(///////////////(/::(/::(/:                                ",
"  /::(/::::::::::::::(/::(/::(  :(/::(/::::::::::::::(/::(/::(/:                                ",
"  /::(/::::::::::::::(/::(/::(  :(/::(/::::::::::::::(/::(/::(/:                                ",
"  /::(((((((((((((((((((((/::(  :(/::(((((((((((((((((((((/::(/:                                ",
"  /::(///(///////////////(/::(  :(/::(///(///////////////(/::(/:                                ",
"  /::(/::(/::::::::::::::(/::(  :(/::(/::(/::::::::::::::(/::(/:                                ",
"  /::(/::(/::::::::::::::(/::(  :(/::(/::(/::::::::::::::(/::(/:                                ",
"  /::(/::(((((((((((((((((((((  :(/::(/::(((((((((((((((((((((/:                                ",
"  /::(/::(///(///////////////(  :(/::(/::(///(///////////////(/:                                ",
"  /::(/::(/::(/::::::::::::::(  :(/::(/::(/::(/::::::::::::::(/:                                ",
"  /::(/::(/::(/::::::::::::::(  :(/::(/::(/::(/::::::::::::::(/:                                ",
"  /::(/::(/::(((((((((((((((((  ((/::(/::(/::(((((((((((((((((((                                ",
"  /::(/::(/::(///(///////////(  /(/::(/::(/::(///(//////////////                                ",
"  /::(/::(/::(/::(/::::::::::(  :(/::(/::(/::(/::(/:::::::::::::                                ",
"  /::(/::(/::(/::(/::::::::::(  :(/::(/::(/::(/::(/:::::::::::::                                ",
"  ((((/::(/::(/::(((((((((((((  ((((((/::(/::(/::(((((((((((((((                                ",
"  ///(/::(/::(/::(///(///////(  /////(/::(/::(/::(///(//////////                                ",
"  /::(/::(/::(/::(/::(/::::::(  :::::(/::(/::(/::(/::(/:::::::::                                ",
"  /::(/::(/::(/::(/::(/::::::(  :::::(/::(/::(/::(/::(/:::::::::                                ",
"  ((((((((/::(/::(/::(((((((((  ((((((((((/::(/::(/::(((((((((((                                ",
"  ///////(/::(/::(/::(///(///(  /////////(/::(/::(/::(///(//////                                ",
"  /::::::(/::(/::(/::(/::(/::(  :::::::::(/::(/::(/::(/::(/:::::                                ",
"  /::::::(/::(/::(/::(/::(/::(  :::::::::(/::(/::(/::(/::(/:::::                                ",
"  ((((((((((((/::(/::(/::(((((  ((((((((((((((/::(/::(/::(((((((                                ",
"  ///////////(/::(/::(/::(///(  /////////////(/::(/::(/::(///(//                                ",
"  /::::::::::(/::(/::(/::(/::(  :::::::::::::(/::(/::(/::(/::(/:                                ",
"  /::::::::::(/::(/::(/::(/::(  :::::::::::::(/::(/::(/::(/::(/:                                ",
"  ((((((((((((((((((((((((((((  ((((((((((((((((((/::(/::(/::(((                                ",
"                                /(///////////////(/::(/::(/::(//                                ",
"                                :(/::::::::::::::(/::(/::(/::(/:                                "};
