/* XPM */
static char *a85a8e923fbe4091e4ef30711cf2f8d1Wl3eJ4f377uG0q3h[] = {
/* columns rows colors chars-per-pixel */
"32 32 225 2 ",
"   c #2B2B2B",
".  c #2E302F",
"X  c #5A3B1B",
"o  c #523227",
"O  c #553F27",
"+  c #5C3C2C",
"@  c #563932",
"#  c #5B3E33",
"$  c #563E39",
"%  c #653B25",
"&  c #683A24",
"*  c #623C2C",
"=  c #6B3B2B",
"-  c #643631",
";  c #633E33",
":  c #6B3D34",
">  c #633C3A",
",  c #5D461F",
"<  c #4E432F",
"1  c #584629",
"2  c #5C432C",
"3  c #48413A",
"4  c #564335",
"5  c #5A4432",
"6  c #5D4A31",
"7  c #55423B",
"8  c #5C423C",
"9  c #574A3C",
"0  c #634625",
"q  c #6B4225",
"w  c #65432C",
"e  c #6A412C",
"r  c #624B2C",
"t  c #75442C",
"y  c #644235",
"u  c #694332",
"i  c #6A4737",
"p  c #634A32",
"a  c #71443C",
"s  c #605A3C",
"d  c #715239",
"f  c #3A3A46",
"g  c #3E3E4A",
"h  c #483D4B",
"j  c #573C47",
"k  c #5D3B42",
"l  c #633B47",
"z  c #3F434F",
"x  c #414143",
"c  c #43434E",
"v  c #4C444B",
"b  c #5C4544",
"n  c #53434B",
"m  c #544749",
"M  c #5A5247",
"N  c #454553",
"B  c #444854",
"V  c #4B4A55",
"C  c #454459",
"Z  c #494758",
"A  c #4B4B5B",
"S  c #534554",
"D  c #4B5454",
"F  c #585658",
"G  c #645645",
"H  c #635250",
"J  c #75634C",
"K  c #6F685E",
"L  c #746A5E",
"P  c #4B4464",
"I  c #4C4D61",
"U  c #4E5162",
"Y  c #555766",
"T  c #5C5D71",
"R  c #606166",
"E  c #756D63",
"W  c #7C6D68",
"Q  c #7A7265",
"!  c #7B766A",
"~  c #7D7469",
"^  c #A35E35",
"/  c #9A6438",
"(  c #996B5D",
")  c #A86A4D",
"_  c #B7654D",
"`  c #A66653",
"'  c #8F6E64",
"]  c #986A67",
"[  c #82756D",
"{  c #827A6D",
"}  c #887C6E",
"|  c #8B7674",
" . c #857D72",
".. c #8A7D73",
"X. c #907E7A",
"o. c #A06F6B",
"O. c #7F816C",
"+. c #85826F",
"@. c #89816F",
"#. c #858072",
"$. c #8B8375",
"%. c #868873",
"&. c #8E8975",
"*. c #8D8479",
"=. c #8E8A79",
"-. c #918476",
";. c #92857A",
":. c #938878",
">. c #938A7C",
",. c #988C7D",
"<. c #9D937C",
"1. c #A5967B",
"2. c #DD876D",
"3. c #DA9469",
"4. c #D08D77",
"5. c #C5987D",
"6. c #D79575",
"7. c #EC916E",
"8. c #E79572",
"9. c #DEA278",
"0. c #DBAB7B",
"q. c #EBAB78",
"w. c #FCA174",
"e. c #FFBD7D",
"r. c #7D7584",
"t. c #998D81",
"y. c #9C9281",
"u. c #9F9886",
"i. c #A89C89",
"p. c #BC9889",
"a. c #B5A78E",
"s. c #9BAAAF",
"d. c #A5B4B9",
"f. c #A7B4B8",
"g. c #AEBABE",
"h. c #B3BCBC",
"j. c #B9BFBF",
"k. c #C59783",
"l. c #D09680",
"z. c #D8A98A",
"x. c #C8B28F",
"c. c #CEA995",
"v. c #CDAB9D",
"b. c #DAA996",
"n. c #D3AE9B",
"m. c #DAAC9A",
"M. c #D5B893",
"N. c #E4AA8D",
"B. c #F9BD8C",
"V. c #E9A592",
"C. c #E3A994",
"Z. c #F7BB93",
"A. c #FFBC95",
"S. c #FDBC9B",
"D. c #CEB0AA",
"F. c #F9BFA4",
"G. c #CCC49F",
"H. c #F4C38B",
"J. c #FCC38C",
"K. c #EEC29D",
"L. c #F3C392",
"P. c #FEC393",
"I. c #F3C891",
"U. c #FDCB94",
"Y. c #F4C59D",
"T. c #FDC39B",
"R. c #F5C99D",
"E. c #FDCA9A",
"W. c #FED298",
"Q. c #DECAA6",
"!. c #D8CBB5",
"~. c #ECC4A3",
"^. c #ECC2AD",
"/. c #E6C8AB",
"(. c #EDC9AD",
"). c #F3C1A3",
"_. c #FCC4A3",
"`. c #F4C9A5",
"'. c #FDCBA3",
"]. c #F5C6AC",
"[. c #FDC7AC",
"{. c #F4C9AC",
"}. c #FBCBAB",
"|. c #E8D1A5",
" X c #FFD7AE",
".X c #EBC4B2",
"XX c #E8C9B8",
"oX c #EBCBBD",
"OX c #F4CBB3",
"+X c #F9CBB3",
"@X c #F6C7B8",
"#X c #E8D1B9",
"$X c #FFDFBC",
"%X c #FFE1BE",
"&X c #AFBAC0",
"*X c #B5C1C4",
"=X c #CCC9C0",
"-X c #D9CAC9",
";X c #EAC7C4",
":X c #ECCCC1",
">X c #E5C6C8",
",X c #E2CCC9",
"<X c #F3C7C4",
"1X c #F4C9C3",
"2X c #E7D2C5",
"3X c #FFDFC3",
"4X c #FBD9DD",
"5X c #FFE4C4",
"6X c #FBE1C9",
"7X c #FFE9CC",
"8X c #FFE4D3",
"9X c #FEEAD2",
"0X c #F3E3DE",
"qX c #F9E2D9",
"wX c #FEECDC",
"eX c #FFF3DA",
"rX c #F2DAE7",
"tX c #F7E7E7",
"yX c #FEECE4",
"uX c #FDEBEB",
"iX c #ECF6EE",
"pX c #FFF5E7",
"aX c #FDF2EE",
"sX c #F8EBF7",
"dX c #FFF7F7",
/* pixels */
"g.g.g.. c Z I $.~ *.$.! =. .E &.#.+.{ $. .| y.=.=.&.$.*.j.*Xg.g.",
"g.g.g.. c A Y A ! $.{ >.*.=.>.>.$.1.1.1.{ ..{ ..,.y.*.$.h.*Xh.g.",
"g.&Xg.. N Z I Z [ { &.&.$.*.y. .y.p 8 # &.*.,.Q *.>.$.#.h.*Xg.&X",
". . .   Z Z N f A E y.Q Q E { -.J ~ &.H r >.Q  .$.-.*.{ 3 . . . ",
"N N c C U U I N A #.,.>.{ } ~ Q r G *.9 , &.Q W E -.;.$.L V C N ",
"A I Z U T Z c Z Z ..y.u.~  .{ Q >.&.$.M [ -...~ #.i.,.E #.@.F B ",
"c C Z Z N Z z 1 2 # 2 O G *.&.*.Q F m { Q { 8 4 O 0 u % a.>.Y A ",
"Z N A h I Z , #X,X,XqXqX3 9 < 5 7 7 8 # ; > k ,X2XXX;X1X= 1.&.R ",
"Z N Y z C 0 0.R.OX8X: = b.+X`.R.`.{.'.T._.}.b.% 6 !..X1X4X* $.$.",
"z U N U c X 0.T.^.* C.N._.T.J.U.E.L.P.P.'.T.S.N.x.6 OX@X4Xy $.{ ",
"~ A g U A p z.+X1Xa _.T.U.J.H.U.E.R.E.Z.T.'.T.T.(.X oX;XuX2 { Q ",
";. .E ! $.K d : - m.T.B.U.U.H.E.L.Y.'.'.T.T.P.T.{.c.; 8 7 i.{ O.",
";.~ y.>. .$.~ % C.F._.'.E.T.[.F.). XZ.T._.T.P.T.{.oX:X+ -. .Q @.",
"..*.&.[ ..{ d m.T.A.T.Y.P.T.+X: = F.T.P.T.P.B.T.; $ XX6X1 >.{ [ ",
"=.*.#...$.{ & z.E.J.W.H.U.E.^.aX> @X_.P.E.U.P.}.dXm #X%Xr ,. .E ",
"~ ;.&.-.{  .& b.T.U.H.W.H.I.+XaX> .X`.T.L.E.U.~.dXm /.$X2 i.} Q ",
"..;.>.$.>.&.q z._.P.H.W.U.Z.}.eXq ).Y.'._.T.U.R.pX8 OX$X1 i.} @.",
"t.E -.%.*.J z._._.T.J.B.E.'.S.T._.`.{.].{.}.Y.Y.oXXX+X{.wX1 ..~ ",
" .E | { ~ q 9.U.P.A.P.7.S.6._._.]./.# y u e % w 4 2X].(.0X<  ...",
"$... . .{ * q.J.U.P.7.A.8.F.8.T.OXy oX:X/..XXX:XtXo {.+X0X9 [ { ",
">.....i...8 q.e.U.P.T.7.S.3.E.R.XX@ OX~.t OX; >XtXb `.Y.qX5 {  .",
"-.-.-.>.G i 9.J.J.P.T.A.S.'.H.`.@X* OX{.^.^.1X>XrX8 K.'.6X1 :.>.",
"#.{ ,.d ) 4.t z.U.U.J.P.T.P.T._.S.C.e + 5 8 > > : +XY. Xp /.$...",
"$...y.+ _ 2.& n.z.B.'.T.'._._._._._.^.oX2X!.;X<X@X].(.5X2 x. .E ",
"~ <.M n ` 2.l.* # v.m.C.m.m.c.m.m.c.n.n.v.D.D.v.m.n.$ 4 |.&. .{ ",
" .a.g P o.` ( ' b b ; o a - i y * e q q w + w * = ; v =X>... . .",
"X.x.S P j n S j uXyXwXwXwXwX8X8X).[.Y.~.(.eX6X7X8Xp.F D G.Q K { ",
"~ M.n C r.v sXsXaXyXwXwX9X5X9X7X5XS.'.`.7X3X7X5.k.yXx iXs <.Q E ",
"h.j.#X3 ..7 D.>X>X-X2X+ / 3.^ 6.5X7X5X5X6.5.5.7X9XwXv -X1 !.h.g.",
"d.d.!.1 L 8 = = u # $ ' ) 3.6.4.( p.k.5.6X8XwXwXwXyXb @ 6 h.d.d.",
"d.g.Q.w | k V.A.T.}.yXj ] ( ] ] uXtXuXaXuXaXsXsXsXyXz.%X+ d.s.d.",
"g.g.g.(.j k V.w.J.T.0XS l l l k n V v v B B B B c 9 0.P.u d.d.g."
};
