/* XPM */
static char *_970611dc1cf4986fbad307e95ea93ebZ1cwlDgXYRnfMlkx[] = {
/* columns rows colors chars-per-pixel */
"42 32 11 1 ",
"  c #FFD080",
". c #3D4571",
"X c #B85E41",
"o c #FFA25F",
"O c #E88C60",
"+ c #FF8378",
"@ c #FFBB92",
"# c #FFC596",
"$ c #FFE3C2",
"% c #FFEFD9",
"& c white",
/* pixels */
"                                          ",
"                                          ",
"                  ...                     ",
"                 .  ..                    ",
"                 .. ..                    ",
"                    .                     ",
"        ......    ..   ......             ",
"       .###$$...........#####.            ",
"      .o##$..o#########o..###$.           ",
"      .o##.oo###########oo.##$.           ",
"      .o##.###############.##$.           ",
"       ...o###############o...            ",
"        .o##################.             ",
"       .o#######..#######..#$.            ",
"       .o#######&.#######&.#$.            ",
"       .o#######&.#######&.#$.            ",
"       .o#######&.#######&.#$.            ",
"      .o#####################$.           ",
"      .o####+#+####.......###$.           ",
"      .o###+#+#+##.######$.##$.           ",
"      .o####+#+###.##.#.#$.##$.           ",
"     ..o##########.######$.##$.           ",
"    .XO.o#########o.......##$.            ",
"    .XO.oo##################$.            ",
"   ..XOO..ooooooooooooooooo..             ",
"   ..XXXX...................              ",
"   ......%%%%%%%%#####%%%%O..             ",
"   ..X.%%%%%%%%%%%###%%%OO%.%.            ",
"    .X.o####.XOXO%%%%OOO%%%.#.            ",
"    .X......XXOOOXOOO%%%%%%...            ",
"    .X.o###$.XXXX%%%%%%%%%%o$.            ",
"     ..oo##$...............o#.            ",
"      ......XXXOOOOOOOO@@....             ",
"           ...............                ",
"           .o#$.    .o#$.                 ",
"           ....     ....                  "
};
