/* XPM */
static char * wall_xpm[] = {
"96 128 90 1",
" 	c None",
".	c #262626",
"+	c #665E56",
"@	c #AEBABE",
"#	c #8E927A",
"$	c #7E766A",
"%	c #32323E",
"&	c #767E6A",
"*	c #C6D2D6",
"=	c #9AAAAE",
"-	c #868A72",
";	c #4E4E42",
">	c #AB9E8F",
",	c #868272",
"'	c #6E665A",
")	c #8A8276",
"!	c #989A7E",
"~	c #3F3E4B",
"{	c #6E6A5E",
"]	c #464652",
"^	c #9A867F",
"/	c #5E5A4E",
"(	c #82766E",
"_	c #928676",
":	c #726A5E",
"<	c #8A866E",
"[	c #B4AA97",
"}	c #9E9283",
"|	c #867E72",
"1	c #605650",
"2	c #72725E",
"3	c #8E7E7A",
"4	c #827A6E",
"5	c #8E8A76",
"6	c #56566A",
"7	c #5F5F73",
"8	c #464A57",
"9	c #7A7A66",
"0	c #7A6E66",
"a	c #8A7672",
"b	c #8A7E6E",
"c	c #968E82",
"d	c #96927F",
"e	c #928A76",
"f	c #A29A86",
"g	c #535A67",
"h	c #4A525E",
"i	c #AEAA92",
"j	c #5B5670",
"k	c #7A6666",
"l	c #525266",
"m	c #4A4A56",
"n	c #767262",
"o	c #8E867A",
"p	c #A5A289",
"q	c #A29688",
"r	c #8A7E72",
"s	c #7A7266",
"t	c #9A8E7E",
"u	c #5E5A52",
"v	c #ACA290",
"w	c #46465A",
"x	c #766E62",
"y	c #3E424E",
"z	c #7E7A6A",
"A	c #686258",
"B	c #7F6E6B",
"C	c #928A7A",
"D	c #9E9A82",
"E	c #9A8E82",
"F	c #4E4E62",
"G	c #4E5262",
"H	c #5A5A6E",
"I	c #BAB69E",
"J	c #9A927E",
"K	c #A69A8A",
"L	c #72665F",
"M	c #524E61",
"N	c #8E8A7A",
"O	c #666A7E",
"P	c #B2A692",
"Q	c #9E9A8A",
"R	c #4A4A5A",
"S	c #383944",
"T	c #423E56",
"U	c #4A4659",
"V	c #927E7A",
"W	c #6B5E58",
"X	c #42424E",
"Y	c #92867A",
"@@@.]RFo0Y)$C(xY,,4)4af)N))Y*@@@@@@.R8R$4xEx'odx)x4|frqP$,Cs*@@@@@@.8Rgn3b$))t|N4^0dz)roton9*@@@",
"@@@.]F6R,)(c3CECr4594)$)t}))*@@@@@@.FFTXo$:A0t)b)444V4)0)5r3*@@@@@@.6hRUA)C)))Ann|Ae4))C)oVW*@@@",
"@@@.8RFUb4e5)3}4qJ44Cot:cer,*@@@@@@.8g6F>a|CVY3Cs4$<Yr4r$4)|*@@@@@@.]RFG04e_)aE)a5r4trt4b<d$*@@@",
"....RR]SFsf:sx4_xBC:$c:))_)$........GRlFF|4xo(CCe$a09_YC4o,<...@@...6R]GX4bo|d(_',z+CCaE4|C$....",
"88]wGGF]F5td(b$0|s_5nC:B:to<{88888FlRXSm74s))nC_),z1r||xC|4N'g*@@.gg6G]FTooos)Cva4c4)aBtY4,Dd88F",
"hFRG7]~RR_}fs|4sde)sa_r0CvoAN<8888FUlSFR~s||_,)J))34)}Y4r(o<3&*@@.lR866GUft)4CYYq$:bo|b|)),N|C8R",
"XwRRXR~RRx45foeontn|nbs|(a4Y[|GR6]8]]88mXbuC()4_tC:A3))C(szxop*@@.yF8GGjFC4(_t,54A:B)))e2,4oWzXR",
"R]F~FRSFH:|srCs,q,,a)(r<()os{)CGFFRF6~8FFb)A)b)CtC5>Da}_{)44)#*@@.FmFmmGF)_0V4}4artsd3fos4}_:r,6",
"R]6yw8RgR4a)4)'$)b|too{n,Ct(s4ooF8RRFF8RFWbBbr)Y)_C$|3<_}}E))r*@@.FG8mlFg4|):|oqnCc4s_)|/,K|,q)E",
"yg~g~7w]F4,ub:_:|rsLz$|(5)o)YC)zF]~F88~mF)o^)_o)sC44|9)_(Ysr|-*@@.8FRRmXHsbsbo1)(C)4|4$ab4ar}45,",
"48~GFhU~m$4(o|bC:Y)b$Ae}_|>oztsx)]8FXR7GF$)ecx,o4be$_r|4ACB)o-*@@.8FF8MFU-}tA4o((|}b_s$erDs4(_rf",
"Y)$|C:f)4_4)(t45)|C)r)$))_:r|Js-n)sco;xs4}x_4)|>))s0()_(eV({,2*@@.UFg~R)))(|v|}b4_eq4)Vx|s)_E<|Y",
"YsfC4_s^s__)V)9s2r,$zCq)_KzsV$s_aoAs)cbe:b))b)xz$43e(NE3Cboo|o*@@.8RRFmsxnbbs3b__3o|c5bEY4E0)r|z",
"rY<B34e4||Y_$4o$_f)')s)b4,bb|)$$Y<t,0CCB)3)x54La4bcK)Jtb()4s|d*@@.6GGm6(o}o(_a04ss::ev(<ar)r-C|{",
"#o,))z_at|a,AJ)e<A$)fK)Y0:C$s)|A5q)>-_:ra404sP||xKftob^)(tEroz*@@.FmRg~4ss,(c(f)34'))q{3<:,})ebt",
"sYC_4|,rs_44bo_)zec(o0)r$4r))}zx)|,e&sYNbt(J()0),a0bb(fb+(arD<*@@.FRRXF}<)o(o44_,s}3:5<'$)CE)t,)",
"VVC)cerr)(A3))(|o)>)fn',),(zb4b_os4)t}C[s,}))ee4$|A0B4b)(_0$|5*@@.8hRF7)Ce)K|_$ob)5_4):$bCV$:b_r",
"cA_-obo(|<)ab)4B<(be#)_b)#4b,)3LqYCt_Vrse4bbvxKB{sb})t|$|$z4o2*@@.Rw]8]()bb$b|D(4)|K404)or))bK44",
"4xa$0)(,o4|)5_D$,s((_(rfb4sC,4ao4(ft|)(xCq,1Ceo)>uxf)_(_V4ozo|*@@.8y6R6d)()o|:)V4_-45Jaa}C3s4Yao",
"_3,|4C/ta$b),0:t,4:3(E4t$_(f)bB(__|A,_)c45e3s)$rae)VYV4:4|,D<2*@@.mGFFSbev_bP>es)CCoz$:-}_(_4||0",
"Crb[b3J),)Asc,t>o(se3b()b_:|(4()_(r$4x_)tVso_eaJ:3:s()AV4,|uE|*@@.GF8mRrC44L)etb_r_b(^D$E))_$r)4",
"__C)<b|o,e-s))|,s<oA|:Cb4(0tbfa}'s)b4_0J(|o,a_4qYb4_<|obursYC2*@@.8FF~R4C4(}4q5sC4)s+'o0EY_)C|_K",
",$to4(_(V$d5_)b0<))))-)34(o_)))4o}4,$)b)$bd4VsEC,_|s)tsqaE)3No*@@.hFGRR)araoJ))t43o,a(#|}|De)|dr",
"))tt(9<'e$_)cBtt}Ae_)s4bbz)sbf$A343)4}|b_4tY4|q()z|5t4/)4Vso)-*@@.RX]yUC5c$tr4zx:4oCnx4es)$|4b)C",
"s,E)(bqx))(_esa<4ef)4))4t444b)4)b)s5zC}x44CVxxK$)t,CABf_o(D_4r*@@.FFUmF$c|)c)s1os)))3))$t<|b:$'W",
",C_J:)$e+be):_c)_te4K4)4iKs,K()4|_(V,)4z)V)c_e|,x{txbt)f)|Y,xp*@@.8G]U~s)$))-5$b}b)xbxobzob{Y9:o",
"VJ_)s4)C_t)fs_bs4)zb)4)K|b:)DAA)q<C4_e()0,e0bobCa4oV)Cs)4_sL|,*@@.6RR6F0:_bb4)4)))C:a44sE)CC)5-A",
"nCs_aJr_3_srYC,(_x$:4bC)_(tb_)${,xs)4}z)e)tA)|r,/d,,)t4_$)rzr2*@@.S8~]m4fb,s_4ce5)4Yrt(bsC4CCAC)",
"***=,c|t434{rMt44C4$}4_|)a|)*******=40_a)s3_cb)t4_44e_)4|bE)***@@.==FyRz$o0IJ|bA44)C|fn(aC}(****",
"==@.j3o0bree):)Ca)xnf)o))'Cs*=====@.H4nBzso|rCbt))qa_)sb)aVc*=====@.RRm)_4_b}4t34)-rr|[93:_+*===",
"@@@.mm93ot<s4)ee)45_b_z5b4)2*==@@@@.RjE_-b444CJEe4<zA|__o5d,*==@@@@.GFm+e),)tBqez)L$o$|Co)_|*==@",
"@@@.8FJC:<)_))b)_:oc45,)34_z*=@@@@@.UU5^b3344)s$))<a5VosCP$-*=@@@@@.]S6)($b4_)J))b(4t|K4)x|e*=@@",
"@@@.hlR5,Y4tCC))_}et,bbs#b$J*@@@@@@.8]R}W4_4a}c5))|'oxrA_4o5*@@@@@@.6]Xe((_)A))_)Co{45434sr5*@@@",
"@@@.UGRG5$t)sb:b(5)aA#rC_)|-*@@@@@@.R~ll_}44)Ce:-0):c}Bzt3{,*@@@@@@.gwRFA<KL(}a54)|x0e_z)c$<*@@@",
"@@@.FR]]xaK04_ts5f,J(:rte<|<*@@@@@@.F8FH_t!)^4))bJ44/)4)aP$,*@@@@@@.]]y8$EVC)q1||)_t4,|s||K<*@@@",
"....S8F7m)s_s|0)q(sCaEC<C||-........]8RRF}_3DbsC)s)z0:KC(o2&...@@...RgGUFCEs_(|b)rq)t<(-)coN....",
"G]y8RFFF]aaB$)5z3^e,rr'A),4,-888yh8GF87]UV)54))_a|bd4e,4f4|Ddh*@@.h]hM86U)_,bDttobb$oqA(e)4!<87F",
"gw~Ry]88Gz4$0e),^C|()|d)4)[C,<S]G8]8y66~6c_tbs4e|ra_4)|44r5,{&*@@.8RRFRm8|()x)0x$o)$:esKoEo)sx7U",
"FFSm668XRb|44}e:3b)$x3Y0:s,E{<F8FhRyF]8G8|}0a()s|cs_434J44t),{*@@.yRhF6ym)_cb#0ob4o-od0x4(rr|4Fg",
"R86886]]XrbPb)s5){_J})t_0)4W|n+XFw7Fw8F8F(C4x,:tb)4)xs_eo,ar,-*@@.]UFR]FFrb_a_50$4eVb)|ae)t4t))R",
"]XF%888F8C44te),)ser44(srb|Po|$4lRG]RF8Gm/))xbCYf)))s4s3-QzC)|*@@.%RRRFFm_5$|)D)4t4x4qert|Yop|Jo",
"]86]FUgRXCKC4|es_t):V_))sY|xr4:xGGRFMUFR6b)t,o4C)x4b_b:()|)p,#*@@.GhFlg6XE)44,se4)_s4oq4|:E0(4|C",
"fF8y6RR7lrs(bac)Y,xLY)_,)5E)r,4L)FgF]FUGRsK_|o$$o(o4$,-e))Vz2,*@@.FwgS8lR4_+)_bE_)eC4zYbd)o|tsqJ",
"5J|xsr(rxC):o$sts,cC4:Y|Ys)satoe()'z[ex)5s)JDobbs_(|e3r_$bo,o&*@@.6FF8F54)$btsYt4Cs3Cz){4(|,ErCx",
",3|)3c4oY9_4|1{$V|)4)4{)04o<),),o)eo:))s|||4A(b44bb|4)|((r|4r,*@@.F6HSU1n||0|evs)t),Csoo_b3_<4E4",
"Cqs|,)Y5)4a4of_44|4)b3C),4$)s|e>a>_4(4)C0a4_5|45ae,$__4t$oaN,x*@@.FXRFl(:o)Do|)ae_q_4)_bzC<44BCt",
"o5)_1b)50:V}4a5sdK)eb4b)CtYe:W5|4$C)L4__avb44:,|)|nso}E(_,e4|$*@@.FGmmS)s04dvCeo)d<r),_{)4Jc4tV(",
"Vx)o$5sssJ_4Cot_4)o)$K5)No4pe4$b_se$bs3$|,$4})4(40rYs'()$>b0o&*@@.7FRRm$::,):C:b(q)_te|4,(J)4r-,",
"|t_(o{bY3)_sbbn_ssbd$__bYYBtb)_)z,adb3t({L)__(_()$zC4oK|e40v0|*@@.68yR~os)$,(5)x4<s_3s)_)+u3))|A",
"404bs4$))}o4Cco,,so|4$o4NA)(_5rE,dc,bLv,44esL)))(3asbor)Er4az,*@@.g8R8Fa(s)(4b4),)rC4beCB_))}rC$",
"|tsVz)E_Yz)C)eov4ob)40o)4b0a)CE4b)44)trt_qs,)_e)(_t(4er)(bzr)<*@@.F]yRmb_(<Cx$_)s(aE)_aC)b4C)A$,",
"o)f4:a4__e)0tVs4e^(_nC_Afo4o_J)c3Cr_3a,4ez<)b)e)oox)r:abAJ$s5Q*@@.]6R7hq_4fC4o)sb)xb$):)bAs)as4)",
"b)54rAno}c)d)bs4C0C))Cr)a5t|,4nvCbY$(4ts)c)e4,q9)4Ct4&C)r$),Jc*@@.F8yR8q_,4t:bebYCa40od){:(4s'z4",
"|eC_|fsnz)C:s40q(C:cs3:r|4s,$|b_b)|fo3o__:)sbLcL4$r:)$)(}s4zo&*@@.RFRwR)r:eC34o01r,_za$s<bb1V_$b",
"{)oe#CYs_b_t)))b|_)e))bK($5,444n|,tbW_b5_:(o4)Po)4$)0tVrr5)5Eo*@@.88]8]|q3C})<C|oo|CsC$|b)||soot",
"tq|04q)E's$5s4(),sLs)b_3s|d)')Cb)b_q||<3Cb)|et|d)54)ssdo)4Vs,<*@@.RR6R~|C))stQb4))d_(tA544q4e)A4",
"-CJ4)b4,0t)t<bto_,|4))rxts_C$bc^s_Y54co4)_sB5zsb)b)0s|44bAs}$'*@@.hwGFm_:{oszo5ber){s0o)st4_:q)-",
")5|s$b&:,}44Vb)+)be5_srCJz_ttb)4(_4))$|n)$44c(beoJ))t}4))e|oz,*@@.6FFR84b$)t:)4,50eb/3e4z(:xbe,<",
"ros)n(B5-senab)bL|bVoko4,)Cc)b)_5)4,|54b$b_b{)_b)(bb)_3|xA)|qz*@@.F]]UF)4Cs4)s4Vs4V|c$e):_c5)o$|",
"tnYt$ab$)bC5ct_(0C:o)L0_4:|de(ba0_)z)_4,e||$ns)tK$4q4)n)ro4s|&*@@.G8F]~YY_)41)_oL,,be))vsB)A$$3r",
"***=,5|t<($,4b_cb)D5|vCt)|$_*******=evC)f|eLvb|_)Kb(f|)))fCY***@@.==gGRY4:)}bC4,4)4o__Lto_os****",
"==@.jt(_oC<(4)4Lo_)|t3rbb_|)*=====@.Hbt))btA4)-sY0)t|_4)eV|o*=====@.w6lKAo4ts))_C5et,x|,5$4e*===",
"@@@.=************************==@@@@.=************************==@@@@.=************************==@",
"@@@@@@@@@@@@@@@@@@@@@@@@@@@@@=@@@@@@@@@@@@@@@@@@@@@@@@@@@@@@@=@@@@@@@@@@@@@@@@@@@@@@@@@@@@@@@=@@",
"@@@@@@@@@@@@@@@@@@@@@@@@@@@@@@@@@@@@@@@@@@@@@@@@@@@@@@@@@@@@@@@@@@@@@@@@@@@@@@@@@@@@@@@@@@@@@@@@",
"@@@.........................*@@@@@@.........................*@@@@@@.........................*@@@",
"@@@.8g8888yhg888O8hh8h888hhy*@@@@@@.8hhGhFh888hh]88h8h8hyhg8*@@@@@@.88hy8hhhhyg88h]88F888hy8*@@@",
"....888y86h~yhy888FF8]hFgg8h........Fh6]hFXS8R8FhFF8h8888ghh...@@...]88Xh8~hG]gGywhF8g]F888h....",
"88hF6h8hXghF8R6GFR8]w8h888hgyh8h8h8]8]FG]g8~GR]88687FTh88g8ghh*@@.8h8]wFF8]FhwGwR~FF8g]]g88]888~",
"h]FGgGFRF]R8FFRyRGGRRFRR86]888888h8GRGU]R8F886RRF88RG]Fjwjyghh*@@.hhyRG]68F]~]gFG8FG8F8~FF888888",
"g8F8FXFRR6R]8]yRgRgGFR]F~wGS6h88FF8F8R]8gX]lGgyRURRG8ST8Uy8888*@@.8GyRFy]X8]8h~G87RF~8wUS]86URRU",
"~G8HR8FUhR6RGSFFlFRRgRX8hFR8G~8F8G]RRFRRRRRRRmlRXFRRXR8~F6Fhy8*@@.8FRX87R]8wRFFF88F8F8FR8F8FGX8]",
"RlmRF8yXTRFU]688]8FFGy6l8RGXGF]~yFhFGF%GGRF~8868F8%8RF]R88yFh8*@@.~F]hF8RRRFwFR~Fg68Rl6RFwFG6RGR",
"68F]FXRF7r(3_a)r|c|eBY),ao4r})4)8]RF6FFRGzN)c)Nso|,s4||o|oN${!*@@.y8XRXFR)V4_s,:o3|QC)C|r(4)0rrY",
"tRF~R]868J|EY:rJr_at)CnEsnY5tYbb|R8Fg~8URNNJd|4t):C)CC,o:)(oQ#*@@.FG]RRRy5Css,r)J43o(:Esz|)z|Cd$",
"a4|4<as{44a,),A)a(xrYCt,_xE)b4^<s3)b)_s:|Vfoc)t)CCkca2)|,Y)Jz-*@@.G~XF8):t)4|$bsb)JsfraY{)av,:,(",
"doq3|c$aYrxr-))n,ofJsVop|b4)C,|0)_0_4a|LC)444bC4)$Ao)4AY,Ar4q-*@@.wF888C:)eCx4ns:4t4'|3C3bt4>|ok",
"<$k|,)t,,|C(_)p)K)4^q$nA3_()[54|>)$r4$oN4c>(0$4),4v)i0$)cYC4od*@@.7FXGm)$_0,5sJt0s)_4cbEK):r:eA$",
"+bs$)b5xBar|4))__L44(AVs_qnqC_4bC)|,qo)b)t|eobzb:bCs)rsPn}44)|*@@.~GXRR$5|o{_,0)_:s}t3bPC&_CJs<!",
"4zxb4)CC$,te,)es$)Ae3K:)CC)xYK_4$o$<{)E)4boV4)}44zb$r}os)Y4)<,*@@.lRRSS|+-|CEC|e4)k>oo44Ys4)r$4)",
":rrtnN))5B4t)$o(sr)J4)b4a5_4PA4C_|Yso4b4)AtEt))tCsa9E)4)Vr)roc*@@.FhRFF|(44(((t)$|e))br)fCB5V|3,",
"t,40-_[sLs,aC4,ab(4)_,rK$)434r,C|C_4x$)4Y_L__e)4(Y<rBACV|C0)|,*@@.l6]R]$5}eoe,sae))f4b$)K(bszs04",
"ss)Kb1ev4[b}Yb|x_:)b|)ot_K|V4,4bYxobd)})t^(o)K))bad))_44)Vq^4&*@@.Ry8R]t)JL_f|e)CvJ)|eo4$4C$)_V$",
"ao_)$)4t,Vs}t,){|_,,'t+s$,boxaA4^Bb4)C4)Co:Ls||D|_,)'4t<Y<<a59*@@.8RRyG_J)|rC0Etb_)b)_:z|CC_)C|A",
"C:||b)e)4)}$Ca)f)0_o|irqs|5s|)(s)C:k}_)B0b__),es|)b)s($J4s4)CN*@@.8RHHFq>+|Yrc$)C4__())A{$dxo4(9",
"srbooCD)Abs4,5s|r4P{4,E|5t)4$z|4|osb|$0|,)'Js($5boq3__oEJJY43-*@@.]RRR8D){rto)s|Es:)_txn))b,a_Bb",
"AEa4#)(!f_{dzCb444t|44b)bbKbq4(ee)/434K|#A:|Cb{:_))b)40(v))sCc*@@.]F]RR4b$D_$4b)sre)_rsb,,s_)))<",
")a$E4))Y4)|0:tJtb_/^})()o4)C,)4sze:b(b)zbtJq_EAr)4|4_3)C0r>4x2*@@.F]]Fgo4C_vt)E,B$fsC:|,|orL)5b4",
"n$|(eY))q(4)K4V,$n))4bxJ)bob5b4)Jb4K_4o4ot,)1bbe)bAt()Y0Y444,<*@@.8F8mR4C|Vb$3,n|A4)4$(:_tC|k$)N",
",e|43)C(b4_rz5cCC4_|_)x)t,(V,'(>ssKq)0)e4)|5)9C)rA_|o,_!oV),o|*@@.HSRRmE))$cKo_,)k)(bo_A)):44|er",
"C0t|4>4}bc,:):zar),|4c(Ct|sbf__Brdx)}b,,_44sa4J)a|{)4BaE4do)4|*@@.XGgwR4)5(4o)|z(s||e)o))'skoV3s",
"fs)))__)44,a<V_ore(}b,$Bv,st44)5C4b)JCc)Abtr$zrCCe)b)C3)_:t|o,*@@.FHRlR__()e)$_e)t|CsVe,)3s4CCb4",
"***=ts4(ea<n)as,:4st:)t)5o)V*******=(rx4)K,-)cLEC(,)}nV$Doq|***@@.==GR~rJb40_s_eC_E3b)|)$zcb****",
"==@.Ftboo-Vo)|x:-))b4eofeto<*=====@.Fssb)a:ks,J$_)|_bc${oJr,*=====@.R8]9:0b,0x_(t4bbJ5bd5)tY*===",
"@@@.RU(td<4z+)t)bJt(a_ea,b/<*==@@@@.~644|bqe{f$a54K<,oobY_|o*==@@@@.MR8c4|}-|obr(orob:_4ezso*==@",
"@@@.Fls3s)de)<oa)t0)fo)to{<4*=@@@@@.88|s):fsr(_cc)4|xbY|_4,x*=@@@@@.R~Rbx))(C4(|o4)__(t)bcz<*=@@",
"                                n|,))$_V)o)s:|44}e)040|q4oC|<9-#                                ",
"                                )J)e(,)KA)o)ece)sozbCCv4s5,N,)s4                                ",
"                                s_(5qsB4b|_r)e_qs):C3b5zD5$44a})                                ",
"                                'J4soxb4o44CCC_BCat4ttt))4orYEE4                                ",
"                                sKb|))s^4_r30#_x}C))CB43_4)4f)4C                                ",
"                                ((4)b4b|C_()qfs$(4)k)xrtq}rC)(r{                                ",
"                                C4PA<|t)saeo)b|B:4As)4C544o|)asc                                ",
"                                q$C)}Csbt))z)))|_q4_b4tto4C0$)rr                                ",
"                                4$(tacCsr(t_)tbLb()$os44}stJ))4^                                ",
"                                _,C|c)_4dt4(q)of)A_4deqVoa|,CCs$                                ",
"                                -_4$4$5xo4sC454(t3btE)>o5ra'5B)E                                ",
"                                C_))4o)tv)0_44b_bo4b|4)),,z)Jcaz                                ",
"                                ,)}_|tes4B||rq4)c4sc)(4s)r'4C|4)                                ",
"                                $bc_s})_0v:4oto_4o|4:$''4,)rb)}q                                ",
"                                t{)_$)fc4t)}ots()ee5(bcbYa4|J4$,                                ",
"                                4as:5e),4_L_a)_:)))4$))t_,tCt05)                                ",
"                                s)0$t4qt)o4zt3}4}_(b)t)3o+n)n41,                                ",
"                                ()44(ao|_^)b0cbeC|,JC44))tzb_-ea                                ",
"                                ss)co->Jb_|)94tCtA)b)V04b<)a34td                                ",
"                                bb4(t0(Lsa0+b,ab$__44,CC|EYCz)$Y                                ",
"                                s_f_d$_)r)a|0_)ztob4bt)I|C40xc4,                                ",
"                                aa4b<))e$)zt)rCs)$(B$|:)ts4|_)s)                                ",
"                                $r+rxs:4bo4,cbAa4$)4|$s|,$Ae)C0|                                ",
"                                4|:)(c44L|(Cx,oce{b_(b)_s)|0)4qC                                ",
"                                oq$b_4r)b:_bob4)Vb4t(,a)_K44ss40                                ",
"                                3sC())carxr4$!|3sa_{sqbb4_q_b440                                ",
"                                K)))avefaK))o),b,zqt$<oo|9^))bs_                                ",
"                                _:A4$5|Vssd_<0)o$44:|5s(at_)4|44                                ",
"                                KreV)C|,b}40)Jb<)ct4VC^CCbb4s4n(                                ",
"                                (,)C^44AC))s_r4))Keoo,4VA)4_)oA)                                ",
"                                4bsb0)__(a0)r$44x}4|(t^bsssbs|b|                                ",
"                                34):brA|4V}a)4,_|(B4)_2|ob0((s(_                                "};
